<svg version="1.1" xmlns="http://www.w3.org/2000/svg" xmlns:xlink="http://www.w3.org/1999/xlink" width="1660" height="107"><defs><clipPath id="hWulyksAnCXb"><path fill="none" stroke="none" d=" M 0 0 L 1660 0 L 1660 107 L 0 107 L 0 0 Z"/></clipPath></defs><g transform="scale(1,1)" clip-path="url(#hWulyksAnCXb)"><g transform="translate(-70,-258)"><path fill="rgb(101,87,210)" stroke="none" paint-order="stroke fill markers" fill-rule="evenodd" d=" M 450 115 L 472 115 C 473.1045694996616 115 474 115.8954305003384 474 117 L 474 139 C 474 140.10456949966158 473.1045694996616 141 472 141 L 450 141 C 448.8954305003384 141 448 140.10456949966158 448 139 L 448 117 C 448 115.8954305003384 448.8954305003384 115 450 115 Z" fill-opacity="1"/><g transform="translate(448,115)"><path fill="none" stroke="rgb(255,255,255)" paint-order="fill stroke markers" d=" M 4.44 13.76 L 9.75 19.07 L 21.99 6.83" stroke-opacity="1" stroke-linecap="square" stroke-miterlimit="10" stroke-width="2.6"/><g transform="translate(-448,-115)"><text fill="rgb(0,0,0)" stroke="none" font-family="geogebra-sans-serif, sans-serif" font-size="32px" font-style="normal" font-weight="normal" text-decoration="normal" x="483" y="140" text-anchor="start" dominant-baseline="alphabetic" fill-opacity="1">Serif</text><g transform="scale(35,35)"><g transform="translate(2.2857142857142856,9.107142857142858)"><path fill="rgb(0,0,0)" stroke="none" paint-order="stroke fill markers" d=" M 0.645 -0.6950000000000001 L 0.645 -0.6950000000000001 L 0.591 -0.47600000000000003 Q 0.582 -0.457 0.5760000000000001 -0.456 Q 0.5640000000000001 -0.456 0.5640000000000001 -0.466 L 0.5680000000000001 -0.52 L 0.5680000000000001 -0.522 Q 0.5680000000000001 -0.66 0.452 -0.675 Q 0.439 -0.677 0.424 -0.677 Q 0.34600000000000003 -0.677 0.291 -0.614 Q 0.249 -0.5660000000000001 0.249 -0.511 Q 0.249 -0.451 0.298 -0.425 Q 0.304 -0.422 0.31 -0.42 Q 0.315 -0.419 0.377 -0.402 Q 0.46900000000000003 -0.378 0.487 -0.366 Q 0.495 -0.361 0.504 -0.352 Q 0.553 -0.306 0.553 -0.23500000000000001 Q 0.553 -0.14300000000000002 0.481 -0.064 Q 0.399 0.019 0.299 0.022 Q 0.183 0.022 0.13 -0.05 L 0.081 0.007 Q 0.068 0.022 0.063 0.022 Q 0.052000000000000005 0.022 0.052000000000000005 0.012 L 0.109 -0.213 L 0.109 -0.215 Q 0.111 -0.222 0.112 -0.223 Q 0.116 -0.227 0.122 -0.227 Q 0.134 -0.227 0.134 -0.216 L 0.132 -0.209 Q 0.126 -0.17300000000000001 0.126 -0.155 Q 0.126 -0.042 0.241 -0.016 Q 0.269 -0.009000000000000001 0.301 -0.009000000000000001 Q 0.38 -0.009000000000000001 0.436 -0.077 Q 0.481 -0.13 0.481 -0.193 Q 0.481 -0.271 0.40900000000000003 -0.294 L 0.389 -0.299 L 0.28200000000000003 -0.327 Q 0.216 -0.34600000000000003 0.19 -0.40700000000000003 Q 0.178 -0.436 0.178 -0.46900000000000003 Q 0.178 -0.56 0.254 -0.633 Q 0.33 -0.705 0.425 -0.705 Q 0.527 -0.705 0.5680000000000001 -0.633 L 0.616 -0.6900000000000001 Q 0.629 -0.705 0.634 -0.705 Q 0.645 -0.705 0.645 -0.6950000000000001 Z"/></g><g transform="translate(3.2344920634920635,9.107142857142858)"><path fill="rgb(0,0,0)" stroke="none" paint-order="stroke fill markers" d=" M 0.687 -0.327 L 0.09 -0.327 Q 0.058 -0.327 0.056 -0.34700000000000003 Q 0.056 -0.367 0.089 -0.367 L 0.6880000000000001 -0.367 Q 0.72 -0.367 0.721 -0.34700000000000003 Q 0.721 -0.327 0.687 -0.327 M 0.6880000000000001 -0.133 L 0.089 -0.133 Q 0.057 -0.133 0.056 -0.153 Q 0.056 -0.17300000000000001 0.09 -0.17300000000000001 L 0.687 -0.17300000000000001 Q 0.719 -0.17300000000000001 0.721 -0.153 Q 0.721 -0.133 0.6880000000000001 -0.133 Z"/></g><g transform="translate(4.290269841269841,9.107142857142858)"><path fill="rgb(0,0,0)" stroke="none" paint-order="stroke fill markers" d=" M 0.661 -0.23 L 0.116 -0.23 Q 0.084 -0.23 0.083 -0.25 Q 0.083 -0.27 0.116 -0.27 L 0.661 -0.27 Q 0.6930000000000001 -0.27 0.6940000000000001 -0.25 Q 0.6940000000000001 -0.23 0.661 -0.23 Z"/></g><g transform="translate(5.234936507936507,7.746142857142858)"><path fill="rgb(0,0,0)" stroke="none" paint-order="stroke fill markers" d=" M 0.10595703125 2.1708984375 Q 0.130859375 2.19580078125 0.1669921875 2.19580078125 Q 0.203125 2.19580078125 0.23291015625 2.146240234375 Q 0.2626953125 2.0966796875 0.28515625 2.0224609375 Q 0.3076171875 1.9482421875 0.318115234375 1.898193359375 Q 0.32861328125 1.84814453125 0.34423828125 1.76904296875 Q 0.3583984375 1.6953125 0.37158203125 1.62109375 Q 0.384765625 1.546875 0.398681640625 1.463134765625 Q 0.41259765625 1.37939453125 0.427978515625 1.293212890625 Q 0.443359375 1.20703125 0.462890625 1.10986328125 Q 0.4892578125 0.98193359375 0.500732421875 0.927001953125 Q 0.51220703125 0.8720703125 0.53564453125 0.768310546875 Q 0.55908203125 0.66455078125 0.566650390625 0.631591796875 Q 0.57421875 0.5986328125 0.60986328125 0.451171875 L 0.623046875 0.39892578125 Q 0.6455078125 0.31103515625 0.65771484375 0.265869140625 Q 0.669921875 0.220703125 0.695556640625 0.155517578125 Q 0.72119140625 0.09033203125 0.755859375 0.045166015625 Q 0.79052734375 0 0.83203125 0 Q 0.861328125 0 0.886474609375 0.01318359375 Q 0.91162109375 0.0263671875 0.92724609375 0.04931640625 Q 0.94287109375 0.072265625 0.94287109375 0.10205078125 Q 0.94287109375 0.12353515625 0.9287109375 0.1376953125 Q 0.91455078125 0.15185546875 0.89306640625 0.15185546875 Q 0.87109375 0.15185546875 0.8564453125 0.1376953125 Q 0.841796875 0.12353515625 0.841796875 0.10205078125 Q 0.841796875 0.080078125 0.8564453125 0.0654296875 Q 0.87109375 0.05078125 0.89306640625 0.05078125 Q 0.8671875 0.02587890625 0.8330078125 0.02587890625 Q 0.814453125 0.02587890625 0.792236328125 0.080078125 Q 0.77001953125 0.13427734375 0.751220703125 0.207763671875 Q 0.732421875 0.28125 0.722412109375 0.330322265625 Q 0.71240234375 0.37939453125 0.6982421875 0.453125 Q 0.681640625 0.53662109375 0.670654296875 0.5986328125 Q 0.65966796875 0.66064453125 0.64404296875 0.751953125 Q 0.62841796875 0.84326171875 0.613525390625 0.92578125 Q 0.5986328125 1.00830078125 0.578125 1.11181640625 Q 0.56494140625 1.17724609375 0.5400390625 1.295654296875 Q 0.51513671875 1.4140625 0.507080078125 1.44970703125 Q 0.4990234375 1.4853515625 0.466064453125 1.6240234375 Q 0.43310546875 1.7626953125 0.43115234375 1.77099609375 L 0.4189453125 1.81689453125 Q 0.39306640625 1.9228515625 0.366943359375 2.003173828125 Q 0.3408203125 2.08349609375 0.290283203125 2.15283203125 Q 0.23974609375 2.22216796875 0.1669921875 2.22216796875 Q 0.12353515625 2.22216796875 0.08984375 2.19287109375 Q 0.05615234375 2.16357421875 0.05615234375 2.12109375 Q 0.05615234375 2.09912109375 0.07080078125 2.08447265625 Q 0.08544921875 2.06982421875 0.10693359375 2.06982421875 Q 0.12109375 2.06982421875 0.132568359375 2.07666015625 Q 0.14404296875 2.08349609375 0.150634765625 2.09521484375 Q 0.1572265625 2.10693359375 0.1572265625 2.12109375 Q 0.1572265625 2.142578125 0.142578125 2.15673828125 Q 0.1279296875 2.1708984375 0.10595703125 2.1708984375 Z"/></g><g transform="translate(6.401603174603174,9.107142857142858)"><path fill="rgb(0,0,0)" stroke="none" paint-order="stroke fill markers" d=" M 0.516 -0.683 L 0.372 -0.105 Q 0.366 -0.08 0.366 -0.057 Q 0.366 -0.011 0.396 -0.011 Q 0.434 -0.011 0.46 -0.091 Q 0.465 -0.108 0.47200000000000003 -0.135 Q 0.48 -0.152 0.486 -0.153 Q 0.498 -0.153 0.498 -0.14300000000000002 Q 0.498 -0.128 0.48 -0.073 Q 0.47400000000000003 -0.056 0.468 -0.044 Q 0.44 0.011 0.394 0.011 Q 0.338 0.011 0.313 -0.037 Q 0.306 -0.049 0.303 -0.064 Q 0.24 0.011 0.17300000000000001 0.011 Q 0.098 0.011 0.062 -0.057 Q 0.04 -0.097 0.04 -0.149 Q 0.04 -0.257 0.115 -0.34900000000000003 Q 0.185 -0.433 0.267 -0.441 Q 0.274 -0.442 0.281 -0.442 Q 0.342 -0.442 0.373 -0.378 L 0.433 -0.615 L 0.436 -0.635 Q 0.436 -0.646 0.422 -0.649 Q 0.41000000000000003 -0.652 0.386 -0.652 Q 0.364 -0.652 0.362 -0.664 Q 0.362 -0.681 0.376 -0.683 Q 0.47000000000000003 -0.6940000000000001 0.503 -0.6940000000000001 Q 0.516 -0.6940000000000001 0.516 -0.683 M 0.308 -0.11900000000000001 L 0.308 -0.11900000000000001 L 0.358 -0.315 Q 0.361 -0.33 0.361 -0.332 Q 0.361 -0.353 0.343 -0.383 Q 0.321 -0.42 0.28200000000000003 -0.42 Q 0.23 -0.42 0.183 -0.352 Q 0.17400000000000002 -0.339 0.166 -0.324 Q 0.137 -0.266 0.117 -0.159 Q 0.111 -0.125 0.111 -0.105 Q 0.111 -0.037 0.149 -0.017 Q 0.16 -0.011 0.17500000000000002 -0.011 Q 0.231 -0.011 0.28800000000000003 -0.082 Q 0.302 -0.098 0.307 -0.115 L 0.307 -0.116 Q 0.308 -0.11800000000000001 0.308 -0.11900000000000001 Z"/></g><g transform="translate(6.921603174603174,8.694250857142858) scale(0.7,0.7)"><path fill="rgb(0,0,0)" stroke="none" paint-order="stroke fill markers" d=" M 0.028 -0.165 L 0.028 -0.196 L 0.335 -0.665 Q 0.343 -0.677 0.355 -0.677 Q 0.369 -0.677 0.371 -0.666 L 0.371 -0.651 L 0.371 -0.196 L 0.47100000000000003 -0.196 L 0.47100000000000003 -0.165 L 0.371 -0.165 L 0.371 -0.078 Q 0.371 -0.047 0.383 -0.04 Q 0.397 -0.031 0.447 -0.031 L 0.468 -0.031 L 0.468 0 Q 0.427 -0.003 0.332 -0.003 Q 0.23800000000000002 -0.003 0.197 0 L 0.197 -0.031 L 0.218 -0.031 Q 0.28 -0.031 0.29 -0.048 Q 0.294 -0.055 0.294 -0.078 L 0.294 -0.165 L 0.028 -0.165 M 0.3 -0.196 L 0.3 -0.5690000000000001 L 0.056 -0.196 L 0.3 -0.196 Z"/></g><g transform="translate(7.285835517601746,9.107142857142858)"><path fill="rgb(0,0,0)" stroke="none" paint-order="stroke fill markers" d=" M 0.334 -0.302 L 0.3 -0.165 Q 0.28300000000000003 -0.097 0.28300000000000003 -0.077 Q 0.28300000000000003 -0.025 0.32 -0.014 Q 0.328 -0.011 0.338 -0.011 Q 0.388 -0.011 0.429 -0.061 Q 0.456 -0.093 0.47100000000000003 -0.14200000000000002 Q 0.47400000000000003 -0.153 0.484 -0.153 Q 0.496 -0.153 0.496 -0.14300000000000002 Q 0.496 -0.11800000000000001 0.465 -0.07100000000000001 Q 0.41100000000000003 0.011 0.336 0.011 Q 0.268 0.011 0.23700000000000002 -0.046 Q 0.231 -0.055 0.228 -0.065 Q 0.20400000000000001 -0.017 0.162 0.002 Q 0.14300000000000002 0.011 0.123 0.011 Q 0.063 0.011 0.039 -0.024 Q 0.029 -0.037 0.029 -0.055 Q 0.029 -0.092 0.061 -0.107 Q 0.07200000000000001 -0.113 0.084 -0.113 Q 0.114 -0.113 0.12 -0.088 Q 0.121 -0.083 0.121 -0.078 Q 0.121 -0.044 0.08700000000000001 -0.028 Q 0.081 -0.025 0.074 -0.024 Q 0.095 -0.011 0.124 -0.011 Q 0.177 -0.011 0.20800000000000002 -0.082 Q 0.214 -0.097 0.219 -0.115 Q 0.273 -0.319 0.273 -0.353 Q 0.267 -0.41500000000000004 0.219 -0.42 Q 0.167 -0.42 0.124 -0.367 L 0.124 -0.366 Q 0.124 -0.365 0.123 -0.365 Q 0.108 -0.34500000000000003 0.096 -0.319 Q 0.091 -0.307 0.08700000000000001 -0.295 L 0.085 -0.289 Q 0.083 -0.278 0.07200000000000001 -0.278 Q 0.06 -0.278 0.06 -0.28800000000000003 Q 0.06 -0.313 0.092 -0.36 Q 0.146 -0.442 0.221 -0.442 Q 0.298 -0.442 0.329 -0.366 Q 0.361 -0.428 0.41400000000000003 -0.44 Q 0.424 -0.442 0.434 -0.442 Q 0.493 -0.442 0.517 -0.40900000000000003 Q 0.527 -0.395 0.527 -0.376 Q 0.527 -0.335 0.49 -0.321 Q 0.481 -0.318 0.47300000000000003 -0.318 Q 0.442 -0.318 0.436 -0.34500000000000003 Q 0.435 -0.34900000000000003 0.435 -0.353 Q 0.435 -0.383 0.464 -0.4 Q 0.47300000000000003 -0.405 0.483 -0.40700000000000003 Q 0.462 -0.42 0.433 -0.42 Q 0.365 -0.42 0.337 -0.314 Q 0.335 -0.308 0.334 -0.302 Z"/></g><g transform="translate(7.857835517601746,8.358768357142857)"><path fill="rgb(0,0,0)" stroke="none" paint-order="stroke fill markers" d=" M 0.389 0.855 L 0.812 -0.021 Q 0.8250000000000001 -0.038 0.833 -0.04 Q 0.85 -0.04 0.853 -0.02 Q 0.853 -0.016 0.847 -0.003 L 0.391 0.9410000000000001 Q 0.383 0.9570000000000001 0.375 0.9590000000000001 Q 0.372 0.96 0.366 0.96 Q 0.354 0.96 0.35000000000000003 0.9510000000000001 L 0.34700000000000003 0.9450000000000001 L 0.149 0.51 L 0.097 0.549 Q 0.088 0.557 0.083 0.557 Q 0.073 0.557 0.073 0.546 Q 0.073 0.542 0.085 0.532 L 0.184 0.457 Q 0.193 0.449 0.198 0.449 Q 0.20400000000000001 0.449 0.211 0.463 L 0.389 0.855 Z"/></g><rect fill="rgb(0,0,0)" stroke="none" x="8.690835517601746" y="8.318769357142857" width="1.3465555555555555" height="0.04"/><g transform="translate(8.690835517601746,9.107143857142857)"><path fill="rgb(0,0,0)" stroke="none" paint-order="stroke fill markers" d=" M 0.661 -0.23 L 0.116 -0.23 Q 0.084 -0.23 0.083 -0.25 Q 0.083 -0.27 0.116 -0.27 L 0.661 -0.27 Q 0.6930000000000001 -0.27 0.6940000000000001 -0.25 Q 0.6940000000000001 -0.23 0.661 -0.23 Z"/></g><g transform="translate(9.468835517601747,9.107143857142857)"><path fill="rgb(0,0,0)" stroke="none" paint-order="stroke fill markers" d=" M 0.47100000000000003 -0.377 L 0.47100000000000003 -0.377 L 0.36 0.067 Q 0.34500000000000003 0.127 0.28200000000000003 0.168 Q 0.224 0.20500000000000002 0.148 0.20500000000000002 Q 0.025 0.20500000000000002 0.016 0.155 Q 0.015 0.15 0.015 0.14400000000000002 Q 0.015 0.10300000000000001 0.052000000000000005 0.089 Q 0.061 0.08600000000000001 0.069 0.08600000000000001 Q 0.1 0.08600000000000001 0.106 0.113 Q 0.107 0.117 0.107 0.121 Q 0.107 0.153 0.077 0.169 Q 0.07200000000000001 0.171 0.066 0.17300000000000001 Q 0.097 0.183 0.146 0.183 Q 0.244 0.183 0.29 0.075 L 0.323 -0.057 L 0.322 -0.058 Q 0.277 -0.008 0.221 -0.001 Q 0.213 0 0.20600000000000002 0 Q 0.136 0 0.098 -0.061 Q 0.073 -0.10200000000000001 0.073 -0.158 Q 0.073 -0.265 0.149 -0.354 Q 0.219 -0.436 0.3 -0.442 L 0.311 -0.442 Q 0.365 -0.442 0.398 -0.391 L 0.404 -0.379 Q 0.41300000000000003 -0.417 0.445 -0.422 Q 0.47100000000000003 -0.422 0.47400000000000003 -0.395 L 0.47100000000000003 -0.377 M 0.341 -0.128 L 0.341 -0.128 L 0.389 -0.319 Q 0.392 -0.331 0.392 -0.334 Q 0.392 -0.354 0.375 -0.382 L 0.375 -0.382 Q 0.363 -0.402 0.34500000000000003 -0.41200000000000003 Q 0.33 -0.42 0.312 -0.42 Q 0.26 -0.42 0.213 -0.353 Q 0.20600000000000002 -0.342 0.2 -0.331 Q 0.168 -0.271 0.149 -0.164 Q 0.14400000000000002 -0.133 0.14400000000000002 -0.114 Q 0.14400000000000002 -0.048 0.182 -0.028 Q 0.193 -0.022 0.209 -0.022 Q 0.248 -0.022 0.29 -0.058 Q 0.334 -0.096 0.341 -0.128 Z"/></g><g transform="translate(10.037391073157302,7.6971428571428575)"><path fill="rgb(0,0,0)" stroke="none" paint-order="stroke fill markers" d=" M 0.4189453125 2.25390625 Q 0.37890625 2.2138671875 0.35498046875 2.161865234375 Q 0.3310546875 2.10986328125 0.3310546875 2.05615234375 L 0.3310546875 1.466796875 Q 0.3310546875 1.40673828125 0.30615234375 1.351318359375 Q 0.28125 1.2958984375 0.237548828125 1.25244140625 Q 0.19384765625 1.208984375 0.13916015625 1.18115234375 Q 0.130859375 1.17724609375 0.130859375 1.1728515625 L 0.130859375 1.14697265625 Q 0.130859375 1.14208984375 0.13916015625 1.13818359375 Q 0.181640625 1.1162109375 0.21630859375 1.086181640625 Q 0.2509765625 1.05615234375 0.2763671875 1.02001953125 Q 0.3017578125 0.98388671875 0.31640625 0.940185546875 Q 0.3310546875 0.896484375 0.3310546875 0.85205078125 L 0.3310546875 0.26318359375 Q 0.3310546875 0.208984375 0.35498046875 0.156982421875 Q 0.37890625 0.10498046875 0.4189453125 0.06494140625 Q 0.44921875 0.03466796875 0.500244140625 0.001220703125 Q 0.55126953125 -0.0322265625 0.583984375 -0.0400390625 L 0.60986328125 -0.0400390625 Q 0.61279296875 -0.0400390625 0.615478515625 -0.037841796875 Q 0.6181640625 -0.03564453125 0.6181640625 -0.0322265625 L 0.6181640625 -0.005859375 Q 0.6181640625 -0.00048828125 0.61181640625 0.0029296875 Q 0.52783203125 0.0400390625 0.472900390625 0.10986328125 Q 0.41796875 0.1796875 0.41796875 0.26513671875 L 0.41796875 0.85400390625 Q 0.41796875 0.9208984375 0.386474609375 0.98095703125 Q 0.35498046875 1.041015625 0.303466796875 1.08544921875 Q 0.251953125 1.1298828125 0.18798828125 1.16015625 Q 0.236328125 1.18212890625 0.277099609375 1.21240234375 Q 0.31787109375 1.24267578125 0.34912109375 1.280517578125 Q 0.38037109375 1.318359375 0.399169921875 1.36572265625 Q 0.41796875 1.4130859375 0.41796875 1.46484375 L 0.41796875 2.05419921875 Q 0.41796875 2.095703125 0.433349609375 2.136474609375 Q 0.44873046875 2.17724609375 0.47509765625 2.2109375 Q 0.50146484375 2.24462890625 0.537841796875 2.272216796875 Q 0.57421875 2.2998046875 0.61181640625 2.31689453125 Q 0.6181640625 2.31884765625 0.6181640625 2.3251953125 L 0.6181640625 2.35107421875 Q 0.6181640625 2.35400390625 0.615478515625 2.3564453125 Q 0.61279296875 2.35888671875 0.60986328125 2.35888671875 L 0.583984375 2.35888671875 Q 0.55224609375 2.35107421875 0.500244140625 2.317138671875 Q 0.4482421875 2.283203125 0.4189453125 2.25390625 Z"/></g><g transform="translate(10.821548696353874,8.430634857142858)"><path fill="rgb(0,0,0)" stroke="none" paint-order="stroke fill markers" d=" M 0.294 -0.64 L 0.294 -0.079 Q 0.294 -0.049 0.306 -0.041 Q 0.323 -0.031 0.387 -0.031 L 0.419 -0.031 L 0.419 0 Q 0.384 -0.003 0.257 -0.003 Q 0.13 -0.003 0.095 0 L 0.095 -0.031 L 0.127 -0.031 Q 0.20400000000000001 -0.031 0.215 -0.049 L 0.216 -0.05 Q 0.22 -0.058 0.22 -0.079 L 0.22 -0.597 Q 0.168 -0.5710000000000001 0.089 -0.5710000000000001 L 0.089 -0.602 Q 0.209 -0.602 0.271 -0.666 Q 0.29 -0.666 0.293 -0.659 L 0.293 -0.659 L 0.293 -0.658 Q 0.294 -0.655 0.294 -0.64 Z"/></g><rect fill="rgb(0,0,0)" stroke="none" x="10.821548696353874" y="8.837143357142857" width="0.5" height="0.039999"/><g transform="translate(10.821548696353874,9.793093857142857)"><path fill="rgb(0,0,0)" stroke="none" paint-order="stroke fill markers" d=" M 0.449 -0.17400000000000002 L 0.449 -0.17400000000000002 L 0.421 0 L 0.05 0 Q 0.05 -0.025 0.056 -0.032 L 0.061 -0.037 L 0.253 -0.251 Q 0.358 -0.369 0.358 -0.47200000000000003 Q 0.358 -0.561 0.304 -0.607 L 0.303 -0.608 L 0.302 -0.608 Q 0.27 -0.635 0.224 -0.635 Q 0.152 -0.635 0.109 -0.5730000000000001 Q 0.097 -0.555 0.089 -0.533 Q 0.092 -0.534 0.10200000000000001 -0.534 Q 0.14200000000000002 -0.534 0.153 -0.498 L 0.153 -0.497 Q 0.155 -0.49 0.155 -0.482 Q 0.155 -0.442 0.117 -0.431 Q 0.109 -0.429 0.10300000000000001 -0.429 Q 0.066 -0.429 0.054 -0.46 Q 0.05 -0.47100000000000003 0.05 -0.485 Q 0.05 -0.562 0.109 -0.617 Q 0.162 -0.666 0.23700000000000002 -0.666 Q 0.34700000000000003 -0.666 0.40800000000000003 -0.592 Q 0.443 -0.549 0.448 -0.49 Q 0.449 -0.481 0.449 -0.47200000000000003 Q 0.449 -0.399 0.394 -0.333 Q 0.365 -0.299 0.304 -0.243 L 0.243 -0.189 L 0.233 -0.18 L 0.127 -0.077 L 0.307 -0.077 Q 0.395 -0.077 0.402 -0.085 Q 0.41200000000000003 -0.099 0.424 -0.17400000000000002 L 0.449 -0.17400000000000002 Z"/></g><g transform="translate(11.52237298621711,9.107142857142858)"><path fill="rgb(0,0,0)" stroke="none" paint-order="stroke fill markers" d=" M 0.463 -0.339 L 0.463 -0.339 L 0.464 -0.339 Q 0.491 -0.443 0.491 -0.51 Q 0.491 -0.637 0.40900000000000003 -0.678 Q 0.381 -0.6910000000000001 0.34800000000000003 -0.6910000000000001 Q 0.252 -0.6910000000000001 0.20400000000000001 -0.611 Q 0.25 -0.611 0.251 -0.5760000000000001 Q 0.251 -0.547 0.224 -0.531 Q 0.212 -0.523 0.197 -0.523 Q 0.163 -0.528 0.159 -0.558 Q 0.159 -0.589 0.189 -0.633 Q 0.246 -0.716 0.35000000000000003 -0.716 Q 0.457 -0.716 0.518 -0.628 L 0.519 -0.627 Q 0.5660000000000001 -0.558 0.5660000000000001 -0.457 Q 0.5660000000000001 -0.35000000000000003 0.513 -0.223 Q 0.438 -0.046 0.314 0.005 Q 0.271 0.022 0.224 0.022 Q 0.109 0.022 0.061 -0.074 Q 0.04 -0.115 0.04 -0.156 Q 0.04 -0.262 0.115 -0.34700000000000003 Q 0.122 -0.355 0.13 -0.363 Q 0.229 -0.454 0.334 -0.457 Q 0.418 -0.457 0.451 -0.379 Q 0.46 -0.36 0.463 -0.339 M 0.227 -0.006 L 0.227 -0.006 Q 0.334 -0.006 0.401 -0.14100000000000001 Q 0.442 -0.231 0.445 -0.303 Q 0.445 -0.392 0.388 -0.423 Q 0.365 -0.435 0.334 -0.435 Q 0.245 -0.435 0.183 -0.34600000000000003 Q 0.14300000000000002 -0.28700000000000003 0.121 -0.156 Q 0.117 -0.13 0.117 -0.11900000000000001 Q 0.117 -0.051000000000000004 0.164 -0.022 Q 0.189 -0.006 0.227 -0.006 Z"/></g><g transform="translate(12.053372986217111,9.257142857142858) scale(0.7,0.7)"><path fill="rgb(0,0,0)" stroke="none" paint-order="stroke fill markers" d=" M 0.231 -0.35100000000000003 L 0.231 -0.35100000000000003 L 0.189 -0.183 Q 0.17500000000000002 -0.127 0.17500000000000002 -0.098 Q 0.18 -0.014 0.249 -0.011 Q 0.317 -0.011 0.368 -0.08700000000000001 Q 0.378 -0.10300000000000001 0.379 -0.107 Q 0.387 -0.132 0.405 -0.209 L 0.452 -0.396 Q 0.46 -0.431 0.491 -0.431 Q 0.516 -0.426 0.52 -0.404 Q 0.52 -0.406 0.505 -0.337 Q 0.491 -0.28600000000000003 0.488 -0.269 L 0.46 -0.161 Q 0.44 -0.074 0.44 -0.057 Q 0.44 -0.011 0.47000000000000003 -0.011 Q 0.508 -0.011 0.534 -0.091 Q 0.539 -0.108 0.546 -0.135 Q 0.554 -0.152 0.56 -0.153 Q 0.5720000000000001 -0.153 0.5720000000000001 -0.14300000000000002 Q 0.5720000000000001 -0.128 0.554 -0.073 Q 0.548 -0.056 0.542 -0.044 Q 0.514 0.011 0.468 0.011 Q 0.41300000000000003 0.011 0.388 -0.035 Q 0.381 -0.047 0.378 -0.062 Q 0.331 -0.007 0.28500000000000003 0.006 Q 0.266 0.011 0.245 0.011 Q 0.185 0.011 0.148 -0.02 Q 0.097 0.185 0.093 0.195 Q 0.079 0.216 0.058 0.216 Q 0.035 0.216 0.031 0.195 Q 0.03 0.192 0.03 0.189 Q 0.03 0.185 0.033 0.17300000000000001 L 0.177 -0.406 Q 0.186 -0.441 0.217 -0.442 Q 0.243 -0.442 0.246 -0.41500000000000004 Q 0.246 -0.41400000000000003 0.231 -0.35100000000000003 Z"/></g><g transform="translate(12.47547298621711,9.107142857142858)"><path fill="rgb(0,0,0)" stroke="none" paint-order="stroke fill markers" d=" M 0.437 -0.67 L 0.381 -0.443 Q 0.508 -0.434 0.555 -0.341 Q 0.5730000000000001 -0.304 0.5730000000000001 -0.262 Q 0.5730000000000001 -0.166 0.488 -0.084 Q 0.399 0.002 0.281 0.011 Q 0.274 0.012 0.267 0.012 L 0.229 0.161 Q 0.221 0.198 0.218 0.201 Q 0.214 0.20500000000000002 0.20800000000000002 0.20500000000000002 Q 0.196 0.20500000000000002 0.196 0.194 Q 0.196 0.192 0.218 0.106 L 0.24 0.016 Q 0.24 0.014 0.241 0.012 Q 0.126 0.005 0.075 -0.075 Q 0.049 -0.117 0.049 -0.169 Q 0.049 -0.267 0.136 -0.34900000000000003 Q 0.225 -0.434 0.343 -0.442 Q 0.34900000000000003 -0.443 0.355 -0.443 L 0.41300000000000003 -0.674 Q 0.422 -0.6930000000000001 0.428 -0.6940000000000001 Q 0.44 -0.6940000000000001 0.44 -0.684 L 0.437 -0.671 L 0.437 -0.67 M 0.246 -0.01 L 0.34900000000000003 -0.421 Q 0.233 -0.41100000000000003 0.164 -0.309 Q 0.114 -0.234 0.114 -0.148 Q 0.114 -0.05 0.198 -0.019 Q 0.221 -0.011 0.246 -0.01 M 0.375 -0.421 L 0.272 -0.01 Q 0.388 -0.019 0.458 -0.123 Q 0.508 -0.198 0.508 -0.28300000000000003 Q 0.508 -0.377 0.43 -0.40900000000000003 Q 0.405 -0.419 0.375 -0.421 Z"/></g><g transform="translate(13.07147298621711,9.107142857142858)"><path fill="rgb(0,0,0)" stroke="none" paint-order="stroke fill markers" d=" M 0.463 -0.339 L 0.463 -0.339 L 0.464 -0.339 Q 0.491 -0.443 0.491 -0.51 Q 0.491 -0.637 0.40900000000000003 -0.678 Q 0.381 -0.6910000000000001 0.34800000000000003 -0.6910000000000001 Q 0.252 -0.6910000000000001 0.20400000000000001 -0.611 Q 0.25 -0.611 0.251 -0.5760000000000001 Q 0.251 -0.547 0.224 -0.531 Q 0.212 -0.523 0.197 -0.523 Q 0.163 -0.528 0.159 -0.558 Q 0.159 -0.589 0.189 -0.633 Q 0.246 -0.716 0.35000000000000003 -0.716 Q 0.457 -0.716 0.518 -0.628 L 0.519 -0.627 Q 0.5660000000000001 -0.558 0.5660000000000001 -0.457 Q 0.5660000000000001 -0.35000000000000003 0.513 -0.223 Q 0.438 -0.046 0.314 0.005 Q 0.271 0.022 0.224 0.022 Q 0.109 0.022 0.061 -0.074 Q 0.04 -0.115 0.04 -0.156 Q 0.04 -0.262 0.115 -0.34700000000000003 Q 0.122 -0.355 0.13 -0.363 Q 0.229 -0.454 0.334 -0.457 Q 0.418 -0.457 0.451 -0.379 Q 0.46 -0.36 0.463 -0.339 M 0.227 -0.006 L 0.227 -0.006 Q 0.334 -0.006 0.401 -0.14100000000000001 Q 0.442 -0.231 0.445 -0.303 Q 0.445 -0.392 0.388 -0.423 Q 0.365 -0.435 0.334 -0.435 Q 0.245 -0.435 0.183 -0.34600000000000003 Q 0.14300000000000002 -0.28700000000000003 0.121 -0.156 Q 0.117 -0.13 0.117 -0.11900000000000001 Q 0.117 -0.051000000000000004 0.164 -0.022 Q 0.189 -0.006 0.227 -0.006 Z"/></g><g transform="translate(13.65847298621711,8.683418457142858) scale(0.7,0.7)"><path fill="rgb(0,0,0)" stroke="none" paint-order="stroke fill markers" d=" M 0.231 -0.35100000000000003 L 0.231 -0.35100000000000003 L 0.189 -0.183 Q 0.17500000000000002 -0.127 0.17500000000000002 -0.098 Q 0.18 -0.014 0.249 -0.011 Q 0.317 -0.011 0.368 -0.08700000000000001 Q 0.378 -0.10300000000000001 0.379 -0.107 Q 0.387 -0.132 0.405 -0.209 L 0.452 -0.396 Q 0.46 -0.431 0.491 -0.431 Q 0.516 -0.426 0.52 -0.404 Q 0.52 -0.406 0.505 -0.337 Q 0.491 -0.28600000000000003 0.488 -0.269 L 0.46 -0.161 Q 0.44 -0.074 0.44 -0.057 Q 0.44 -0.011 0.47000000000000003 -0.011 Q 0.508 -0.011 0.534 -0.091 Q 0.539 -0.108 0.546 -0.135 Q 0.554 -0.152 0.56 -0.153 Q 0.5720000000000001 -0.153 0.5720000000000001 -0.14300000000000002 Q 0.5720000000000001 -0.128 0.554 -0.073 Q 0.548 -0.056 0.542 -0.044 Q 0.514 0.011 0.468 0.011 Q 0.41300000000000003 0.011 0.388 -0.035 Q 0.381 -0.047 0.378 -0.062 Q 0.331 -0.007 0.28500000000000003 0.006 Q 0.266 0.011 0.245 0.011 Q 0.185 0.011 0.148 -0.02 Q 0.097 0.185 0.093 0.195 Q 0.079 0.216 0.058 0.216 Q 0.035 0.216 0.031 0.195 Q 0.03 0.192 0.03 0.189 Q 0.03 0.185 0.033 0.17300000000000001 L 0.177 -0.406 Q 0.186 -0.441 0.217 -0.442 Q 0.243 -0.442 0.246 -0.41500000000000004 Q 0.246 -0.41400000000000003 0.231 -0.35100000000000003 Z"/></g><g transform="translate(14.094805329215681,9.107142857142858)"><path fill="rgb(0,0,0)" stroke="none" paint-order="stroke fill markers" d=" M 0.437 -0.67 L 0.381 -0.443 Q 0.508 -0.434 0.555 -0.341 Q 0.5730000000000001 -0.304 0.5730000000000001 -0.262 Q 0.5730000000000001 -0.166 0.488 -0.084 Q 0.399 0.002 0.281 0.011 Q 0.274 0.012 0.267 0.012 L 0.229 0.161 Q 0.221 0.198 0.218 0.201 Q 0.214 0.20500000000000002 0.20800000000000002 0.20500000000000002 Q 0.196 0.20500000000000002 0.196 0.194 Q 0.196 0.192 0.218 0.106 L 0.24 0.016 Q 0.24 0.014 0.241 0.012 Q 0.126 0.005 0.075 -0.075 Q 0.049 -0.117 0.049 -0.169 Q 0.049 -0.267 0.136 -0.34900000000000003 Q 0.225 -0.434 0.343 -0.442 Q 0.34900000000000003 -0.443 0.355 -0.443 L 0.41300000000000003 -0.674 Q 0.422 -0.6930000000000001 0.428 -0.6940000000000001 Q 0.44 -0.6940000000000001 0.44 -0.684 L 0.437 -0.671 L 0.437 -0.67 M 0.246 -0.01 L 0.34900000000000003 -0.421 Q 0.233 -0.41100000000000003 0.164 -0.309 Q 0.114 -0.234 0.114 -0.148 Q 0.114 -0.05 0.198 -0.019 Q 0.221 -0.011 0.246 -0.01 M 0.375 -0.421 L 0.272 -0.01 Q 0.388 -0.019 0.458 -0.123 Q 0.508 -0.198 0.508 -0.28300000000000003 Q 0.508 -0.377 0.43 -0.40900000000000003 Q 0.405 -0.419 0.375 -0.421 Z"/></g><g transform="translate(14.913027551437903,9.107142857142858)"><path fill="rgb(0,0,0)" stroke="none" paint-order="stroke fill markers" d=" M 0.40900000000000003 -0.23 L 0.40900000000000003 0.05 Q 0.40900000000000003 0.082 0.389 0.083 Q 0.369 0.083 0.369 0.05 L 0.369 -0.23 L 0.089 -0.23 Q 0.057 -0.23 0.056 -0.25 Q 0.056 -0.27 0.089 -0.27 L 0.369 -0.27 L 0.369 -0.55 Q 0.369 -0.582 0.389 -0.583 Q 0.40900000000000003 -0.583 0.40900000000000003 -0.55 L 0.40900000000000003 -0.27 L 0.6880000000000001 -0.27 Q 0.72 -0.27 0.721 -0.25 Q 0.721 -0.23 0.6880000000000001 -0.23 L 0.40900000000000003 -0.23 Z"/></g><g transform="translate(15.913249773660125,9.107142857142858)"><path fill="rgb(0,0,0)" stroke="none" paint-order="stroke fill markers" d=" M 0.331 0.24 L 0.331 0.24 Q 0.331 0.25 0.321 0.25 Q 0.309 0.25 0.268 0.209 Q 0.20600000000000002 0.147 0.165 0.062 Q 0.099 -0.074 0.099 -0.25 Q 0.099 -0.419 0.162 -0.555 Q 0.214 -0.666 0.294 -0.733 Q 0.315 -0.75 0.321 -0.75 Q 0.331 -0.75 0.331 -0.74 Q 0.331 -0.735 0.318 -0.723 Q 0.157 -0.559 0.157 -0.25 Q 0.157 0.058 0.314 0.218 Q 0.331 0.23500000000000001 0.331 0.24 Z"/></g><g transform="translate(16.302249773660126,9.107142857142858)"><path fill="rgb(0,0,0)" stroke="none" paint-order="stroke fill markers" d=" M 0.159 -0.078 L 0.159 -0.078 L 0.293 -0.615 Q 0.297 -0.631 0.297 -0.634 Q 0.297 -0.646 0.281 -0.649 L 0.28 -0.649 L 0.28 -0.649 Q 0.278 -0.65 0.275 -0.65 Q 0.251 -0.652 0.232 -0.652 Q 0.20600000000000002 -0.652 0.20400000000000001 -0.66 Q 0.203 -0.662 0.203 -0.664 Q 0.203 -0.681 0.22 -0.683 L 0.22 -0.683 L 0.233 -0.683 L 0.5690000000000001 -0.683 Q 0.6990000000000001 -0.683 0.763 -0.582 Q 0.804 -0.518 0.804 -0.43 Q 0.804 -0.28500000000000003 0.7030000000000001 -0.159 Q 0.607 -0.042 0.47700000000000004 -0.01 Q 0.438 0 0.399 0 L 0.068 0 Q 0.043000000000000003 0 0.041 -0.008 Q 0.04 -0.009000000000000001 0.04 -0.012 Q 0.04 -0.029 0.056 -0.031 L 0.068 -0.031 Q 0.133 -0.031 0.146 -0.045 Q 0.152 -0.052000000000000005 0.158 -0.073 Q 0.158 -0.074 0.159 -0.078 M 0.375 -0.614 L 0.23800000000000002 -0.065 Q 0.233 -0.047 0.233 -0.042 Q 0.233 -0.034 0.242 -0.032 L 0.242 -0.032 L 0.242 -0.032 L 0.246 -0.032 Q 0.252 -0.031 0.268 -0.031 L 0.381 -0.031 Q 0.505 -0.031 0.595 -0.124 Q 0.604 -0.134 0.612 -0.14400000000000002 Q 0.6920000000000001 -0.248 0.713 -0.41600000000000004 Q 0.717 -0.447 0.717 -0.467 Q 0.717 -0.601 0.612 -0.639 Q 0.578 -0.652 0.536 -0.652 L 0.429 -0.652 Q 0.393 -0.652 0.385 -0.642 L 0.385 -0.642 L 0.385 -0.641 L 0.384 -0.641 L 0.384 -0.64 Q 0.38 -0.634 0.375 -0.614 Z"/></g><g transform="translate(17.158249773660124,8.694250857142857) scale(0.7,0.7)"><path fill="rgb(0,0,0)" stroke="none" paint-order="stroke fill markers" d=" M 0.179 -0.115 L 0.527 -0.6990000000000001 Q 0.537 -0.715 0.553 -0.716 Q 0.5680000000000001 -0.716 0.5700000000000001 -0.706 Q 0.5710000000000001 -0.7030000000000001 0.5720000000000001 -0.6920000000000001 L 0.633 -0.067 Q 0.636 -0.042 0.645 -0.037 L 0.646 -0.037 L 0.646 -0.037 L 0.646 -0.037 L 0.646 -0.037 L 0.646 -0.036000000000000004 Q 0.658 -0.031 0.6980000000000001 -0.031 Q 0.72 -0.031 0.721 -0.02 Q 0.721 0 0.7030000000000001 0 L 0.591 -0.003 L 0.59 -0.003 L 0.466 0 L 0.465 0 Q 0.451 0 0.451 -0.011 Q 0.459 -0.03 0.47500000000000003 -0.031 Q 0.547 -0.031 0.547 -0.064 Q 0.547 -0.063 0.531 -0.231 L 0.28 -0.231 L 0.20400000000000001 -0.10300000000000001 Q 0.19 -0.078 0.19 -0.066 Q 0.19 -0.035 0.23700000000000002 -0.031 Q 0.253 -0.031 0.253 -0.019 Q 0.253 0 0.234 0 L 0.138 -0.003 L 0.134 -0.003 L 0.05 0 L 0.048 0 Q 0.035 0 0.035 -0.011 Q 0.035 -0.029 0.05 -0.03 L 0.05 -0.031 L 0.056 -0.031 Q 0.11900000000000001 -0.035 0.159 -0.085 Q 0.169 -0.098 0.179 -0.115 M 0.299 -0.262 L 0.528 -0.262 L 0.496 -0.592 L 0.299 -0.262 Z"/></g><g transform="translate(17.130249773660125,9.354359857142857) scale(0.7,0.7)"><path fill="rgb(0,0,0)" stroke="none" paint-order="stroke fill markers" d=" M 0.231 -0.35100000000000003 L 0.231 -0.35100000000000003 L 0.189 -0.183 Q 0.17500000000000002 -0.127 0.17500000000000002 -0.098 Q 0.18 -0.014 0.249 -0.011 Q 0.317 -0.011 0.368 -0.08700000000000001 Q 0.378 -0.10300000000000001 0.379 -0.107 Q 0.387 -0.132 0.405 -0.209 L 0.452 -0.396 Q 0.46 -0.431 0.491 -0.431 Q 0.516 -0.426 0.52 -0.404 Q 0.52 -0.406 0.505 -0.337 Q 0.491 -0.28600000000000003 0.488 -0.269 L 0.46 -0.161 Q 0.44 -0.074 0.44 -0.057 Q 0.44 -0.011 0.47000000000000003 -0.011 Q 0.508 -0.011 0.534 -0.091 Q 0.539 -0.108 0.546 -0.135 Q 0.554 -0.152 0.56 -0.153 Q 0.5720000000000001 -0.153 0.5720000000000001 -0.14300000000000002 Q 0.5720000000000001 -0.128 0.554 -0.073 Q 0.548 -0.056 0.542 -0.044 Q 0.514 0.011 0.468 0.011 Q 0.41300000000000003 0.011 0.388 -0.035 Q 0.381 -0.047 0.378 -0.062 Q 0.331 -0.007 0.28500000000000003 0.006 Q 0.266 0.011 0.245 0.011 Q 0.185 0.011 0.148 -0.02 Q 0.097 0.185 0.093 0.195 Q 0.079 0.216 0.058 0.216 Q 0.035 0.216 0.031 0.195 Q 0.03 0.192 0.03 0.189 Q 0.03 0.185 0.033 0.17300000000000001 L 0.177 -0.406 Q 0.186 -0.441 0.217 -0.442 Q 0.243 -0.442 0.246 -0.41500000000000004 Q 0.246 -0.41400000000000003 0.231 -0.35100000000000003 Z"/></g><g transform="translate(17.697482116658698,9.107142857142858)"><path fill="rgb(0,0,0)" stroke="none" paint-order="stroke fill markers" d=" M 0.17 0.17 L 0.223 0.002 Q 0.109 -0.025 0.067 -0.111 Q 0.05 -0.148 0.05 -0.19 Q 0.05 -0.269 0.10300000000000001 -0.368 Q 0.136 -0.431 0.155 -0.431 Q 0.167 -0.431 0.167 -0.421 Q 0.167 -0.417 0.159 -0.40800000000000003 Q 0.101 -0.341 0.08 -0.232 Q 0.076 -0.212 0.076 -0.201 Q 0.076 -0.113 0.17500000000000002 -0.07200000000000001 Q 0.20400000000000001 -0.06 0.24 -0.053 Q 0.299 -0.246 0.34 -0.319 Q 0.40800000000000003 -0.442 0.505 -0.442 Q 0.582 -0.442 0.609 -0.368 Q 0.619 -0.339 0.619 -0.304 Q 0.619 -0.193 0.532 -0.099 Q 0.445 -0.004 0.331 0.009000000000000001 Q 0.315 0.011 0.299 0.011 Q 0.28400000000000003 0.011 0.266 0.009000000000000001 Q 0.231 0.191 0.231 0.192 Q 0.22 0.217 0.194 0.218 Q 0.171 0.218 0.166 0.198 L 0.166 0.197 L 0.166 0.197 Q 0.165 0.194 0.165 0.19 Q 0.165 0.186 0.17 0.17 M 0.308 -0.047 Q 0.424 -0.047 0.512 -0.126 Q 0.589 -0.196 0.591 -0.28200000000000003 Q 0.591 -0.34400000000000003 0.547 -0.371 Q 0.525 -0.384 0.495 -0.384 Q 0.41200000000000003 -0.384 0.35000000000000003 -0.28700000000000003 Q 0.315 -0.232 0.297 -0.16 Q 0.277 -0.06 0.277 -0.052000000000000005 Q 0.277 -0.048 0.29 -0.048 Q 0.298 -0.047 0.308 -0.047 Z"/></g><g transform="translate(18.351482116658698,9.107142857142858)"><path fill="rgb(0,0,0)" stroke="none" paint-order="stroke fill markers" d=" M 0.289 -0.25 L 0.289 -0.25 Q 0.289 -0.081 0.226 0.055 Q 0.17400000000000002 0.166 0.094 0.233 Q 0.073 0.25 0.067 0.25 Q 0.057 0.25 0.057 0.24 Q 0.057 0.23500000000000001 0.07 0.223 Q 0.231 0.059000000000000004 0.231 -0.25 Q 0.231 -0.555 0.081 -0.712 L 0.076 -0.717 Q 0.057 -0.735 0.057 -0.74 Q 0.057 -0.75 0.067 -0.75 Q 0.079 -0.75 0.12 -0.709 Q 0.182 -0.647 0.223 -0.562 Q 0.289 -0.426 0.289 -0.25 Z"/></g><g transform="translate(18.740482116658697,8.627418457142857) scale(0.7,0.7)"><path fill="rgb(0,0,0)" stroke="none" paint-order="stroke fill markers" d=" M 0.261 -0.229 L 0.261 -0.229 L 0.275 -0.07100000000000001 Q 0.278 -0.034 0.249 -0.034 Q 0.231 -0.034 0.225 -0.05 Q 0.223 -0.055 0.224 -0.061 L 0.224 -0.066 L 0.23800000000000002 -0.23 L 0.112 -0.137 Q 0.1 -0.128 0.092 -0.128 Q 0.074 -0.128 0.067 -0.146 Q 0.065 -0.151 0.065 -0.156 Q 0.065 -0.17300000000000001 0.08600000000000001 -0.182 L 0.227 -0.25 L 0.08600000000000001 -0.317 Q 0.065 -0.326 0.065 -0.343 Q 0.065 -0.362 0.084 -0.369 Q 0.088 -0.371 0.092 -0.371 Q 0.098 -0.371 0.112 -0.361 L 0.23800000000000002 -0.269 L 0.224 -0.428 L 0.224 -0.439 Q 0.22 -0.455 0.23800000000000002 -0.462 L 0.23900000000000002 -0.463 L 0.24 -0.463 Q 0.245 -0.465 0.25 -0.465 Q 0.278 -0.465 0.275 -0.429 L 0.261 -0.269 L 0.387 -0.362 Q 0.399 -0.371 0.40700000000000003 -0.371 Q 0.425 -0.371 0.432 -0.353 Q 0.434 -0.34800000000000003 0.434 -0.343 Q 0.434 -0.326 0.41300000000000003 -0.317 L 0.271 -0.249 L 0.41600000000000004 -0.181 Q 0.434 -0.17200000000000001 0.434 -0.156 Q 0.434 -0.137 0.41500000000000004 -0.13 Q 0.41100000000000003 -0.128 0.40700000000000003 -0.128 Q 0.399 -0.128 0.37 -0.15 L 0.261 -0.229 Z"/></g><g transform="translate(19.10471445965727,9.107142857142858)"><path fill="rgb(0,0,0)" stroke="none" paint-order="stroke fill markers" d=" M 0.331 0.24 L 0.331 0.24 Q 0.331 0.25 0.321 0.25 Q 0.309 0.25 0.268 0.209 Q 0.20600000000000002 0.147 0.165 0.062 Q 0.099 -0.074 0.099 -0.25 Q 0.099 -0.419 0.162 -0.555 Q 0.214 -0.666 0.294 -0.733 Q 0.315 -0.75 0.321 -0.75 Q 0.331 -0.75 0.331 -0.74 Q 0.331 -0.735 0.318 -0.723 Q 0.157 -0.559 0.157 -0.25 Q 0.157 0.058 0.314 0.218 Q 0.331 0.23500000000000001 0.331 0.24 Z"/></g><g transform="translate(19.49371445965727,9.107142857142858)"><path fill="rgb(0,0,0)" stroke="none" paint-order="stroke fill markers" d=" M 0.159 -0.078 L 0.159 -0.078 L 0.293 -0.615 Q 0.297 -0.631 0.297 -0.634 Q 0.297 -0.646 0.281 -0.649 L 0.28 -0.649 L 0.28 -0.649 Q 0.278 -0.65 0.275 -0.65 Q 0.251 -0.652 0.232 -0.652 Q 0.20600000000000002 -0.652 0.20400000000000001 -0.66 Q 0.203 -0.662 0.203 -0.664 Q 0.203 -0.681 0.22 -0.683 L 0.22 -0.683 L 0.233 -0.683 L 0.5690000000000001 -0.683 Q 0.6990000000000001 -0.683 0.763 -0.582 Q 0.804 -0.518 0.804 -0.43 Q 0.804 -0.28500000000000003 0.7030000000000001 -0.159 Q 0.607 -0.042 0.47700000000000004 -0.01 Q 0.438 0 0.399 0 L 0.068 0 Q 0.043000000000000003 0 0.041 -0.008 Q 0.04 -0.009000000000000001 0.04 -0.012 Q 0.04 -0.029 0.056 -0.031 L 0.068 -0.031 Q 0.133 -0.031 0.146 -0.045 Q 0.152 -0.052000000000000005 0.158 -0.073 Q 0.158 -0.074 0.159 -0.078 M 0.375 -0.614 L 0.23800000000000002 -0.065 Q 0.233 -0.047 0.233 -0.042 Q 0.233 -0.034 0.242 -0.032 L 0.242 -0.032 L 0.242 -0.032 L 0.246 -0.032 Q 0.252 -0.031 0.268 -0.031 L 0.381 -0.031 Q 0.505 -0.031 0.595 -0.124 Q 0.604 -0.134 0.612 -0.14400000000000002 Q 0.6920000000000001 -0.248 0.713 -0.41600000000000004 Q 0.717 -0.447 0.717 -0.467 Q 0.717 -0.601 0.612 -0.639 Q 0.578 -0.652 0.536 -0.652 L 0.429 -0.652 Q 0.393 -0.652 0.385 -0.642 L 0.385 -0.642 L 0.385 -0.641 L 0.384 -0.641 L 0.384 -0.64 Q 0.38 -0.634 0.375 -0.614 Z"/></g><g transform="translate(20.349714459657267,8.580463857142858) scale(0.7,0.7)"><path fill="rgb(0,0,0)" stroke="none" paint-order="stroke fill markers" d=" M 0.231 -0.35100000000000003 L 0.231 -0.35100000000000003 L 0.189 -0.183 Q 0.17500000000000002 -0.127 0.17500000000000002 -0.098 Q 0.18 -0.014 0.249 -0.011 Q 0.317 -0.011 0.368 -0.08700000000000001 Q 0.378 -0.10300000000000001 0.379 -0.107 Q 0.387 -0.132 0.405 -0.209 L 0.452 -0.396 Q 0.46 -0.431 0.491 -0.431 Q 0.516 -0.426 0.52 -0.404 Q 0.52 -0.406 0.505 -0.337 Q 0.491 -0.28600000000000003 0.488 -0.269 L 0.46 -0.161 Q 0.44 -0.074 0.44 -0.057 Q 0.44 -0.011 0.47000000000000003 -0.011 Q 0.508 -0.011 0.534 -0.091 Q 0.539 -0.108 0.546 -0.135 Q 0.554 -0.152 0.56 -0.153 Q 0.5720000000000001 -0.153 0.5720000000000001 -0.14300000000000002 Q 0.5720000000000001 -0.128 0.554 -0.073 Q 0.548 -0.056 0.542 -0.044 Q 0.514 0.011 0.468 0.011 Q 0.41300000000000003 0.011 0.388 -0.035 Q 0.381 -0.047 0.378 -0.062 Q 0.331 -0.007 0.28500000000000003 0.006 Q 0.266 0.011 0.245 0.011 Q 0.185 0.011 0.148 -0.02 Q 0.097 0.185 0.093 0.195 Q 0.079 0.216 0.058 0.216 Q 0.035 0.216 0.031 0.195 Q 0.03 0.192 0.03 0.189 Q 0.03 0.185 0.033 0.17300000000000001 L 0.177 -0.406 Q 0.186 -0.441 0.217 -0.442 Q 0.243 -0.442 0.246 -0.41500000000000004 Q 0.246 -0.41400000000000003 0.231 -0.35100000000000003 Z"/></g><g transform="translate(20.32171445965727,9.354359857142857) scale(0.7,0.7)"><path fill="rgb(0,0,0)" stroke="none" paint-order="stroke fill markers" d=" M 0.179 -0.115 L 0.527 -0.6990000000000001 Q 0.537 -0.715 0.553 -0.716 Q 0.5680000000000001 -0.716 0.5700000000000001 -0.706 Q 0.5710000000000001 -0.7030000000000001 0.5720000000000001 -0.6920000000000001 L 0.633 -0.067 Q 0.636 -0.042 0.645 -0.037 L 0.646 -0.037 L 0.646 -0.037 L 0.646 -0.037 L 0.646 -0.037 L 0.646 -0.036000000000000004 Q 0.658 -0.031 0.6980000000000001 -0.031 Q 0.72 -0.031 0.721 -0.02 Q 0.721 0 0.7030000000000001 0 L 0.591 -0.003 L 0.59 -0.003 L 0.466 0 L 0.465 0 Q 0.451 0 0.451 -0.011 Q 0.459 -0.03 0.47500000000000003 -0.031 Q 0.547 -0.031 0.547 -0.064 Q 0.547 -0.063 0.531 -0.231 L 0.28 -0.231 L 0.20400000000000001 -0.10300000000000001 Q 0.19 -0.078 0.19 -0.066 Q 0.19 -0.035 0.23700000000000002 -0.031 Q 0.253 -0.031 0.253 -0.019 Q 0.253 0 0.234 0 L 0.138 -0.003 L 0.134 -0.003 L 0.05 0 L 0.048 0 Q 0.035 0 0.035 -0.011 Q 0.035 -0.029 0.05 -0.03 L 0.05 -0.031 L 0.056 -0.031 Q 0.11900000000000001 -0.035 0.159 -0.085 Q 0.169 -0.098 0.179 -0.115 M 0.299 -0.262 L 0.528 -0.262 L 0.496 -0.592 L 0.299 -0.262 Z"/></g><g transform="translate(20.86094680265584,9.107142857142858)"><path fill="rgb(0,0,0)" stroke="none" paint-order="stroke fill markers" d=" M 0.17 0.17 L 0.223 0.002 Q 0.109 -0.025 0.067 -0.111 Q 0.05 -0.148 0.05 -0.19 Q 0.05 -0.269 0.10300000000000001 -0.368 Q 0.136 -0.431 0.155 -0.431 Q 0.167 -0.431 0.167 -0.421 Q 0.167 -0.417 0.159 -0.40800000000000003 Q 0.101 -0.341 0.08 -0.232 Q 0.076 -0.212 0.076 -0.201 Q 0.076 -0.113 0.17500000000000002 -0.07200000000000001 Q 0.20400000000000001 -0.06 0.24 -0.053 Q 0.299 -0.246 0.34 -0.319 Q 0.40800000000000003 -0.442 0.505 -0.442 Q 0.582 -0.442 0.609 -0.368 Q 0.619 -0.339 0.619 -0.304 Q 0.619 -0.193 0.532 -0.099 Q 0.445 -0.004 0.331 0.009000000000000001 Q 0.315 0.011 0.299 0.011 Q 0.28400000000000003 0.011 0.266 0.009000000000000001 Q 0.231 0.191 0.231 0.192 Q 0.22 0.217 0.194 0.218 Q 0.171 0.218 0.166 0.198 L 0.166 0.197 L 0.166 0.197 Q 0.165 0.194 0.165 0.19 Q 0.165 0.186 0.17 0.17 M 0.308 -0.047 Q 0.424 -0.047 0.512 -0.126 Q 0.589 -0.196 0.591 -0.28200000000000003 Q 0.591 -0.34400000000000003 0.547 -0.371 Q 0.525 -0.384 0.495 -0.384 Q 0.41200000000000003 -0.384 0.35000000000000003 -0.28700000000000003 Q 0.315 -0.232 0.297 -0.16 Q 0.277 -0.06 0.277 -0.052000000000000005 Q 0.277 -0.048 0.29 -0.048 Q 0.298 -0.047 0.308 -0.047 Z"/></g><g transform="translate(21.51494680265584,9.107142857142858)"><path fill="rgb(0,0,0)" stroke="none" paint-order="stroke fill markers" d=" M 0.289 -0.25 L 0.289 -0.25 Q 0.289 -0.081 0.226 0.055 Q 0.17400000000000002 0.166 0.094 0.233 Q 0.073 0.25 0.067 0.25 Q 0.057 0.25 0.057 0.24 Q 0.057 0.23500000000000001 0.07 0.223 Q 0.231 0.059000000000000004 0.231 -0.25 Q 0.231 -0.555 0.081 -0.712 L 0.076 -0.717 Q 0.057 -0.735 0.057 -0.74 Q 0.057 -0.75 0.067 -0.75 Q 0.079 -0.75 0.12 -0.709 Q 0.182 -0.647 0.223 -0.562 Q 0.289 -0.426 0.289 -0.25 Z"/></g><g transform="translate(22.070613469322506,9.107142857142858)"><path fill="rgb(0,0,0)" stroke="none" paint-order="stroke fill markers" d=" M 0.40900000000000003 -0.23 L 0.40900000000000003 0.05 Q 0.40900000000000003 0.082 0.389 0.083 Q 0.369 0.083 0.369 0.05 L 0.369 -0.23 L 0.089 -0.23 Q 0.057 -0.23 0.056 -0.25 Q 0.056 -0.27 0.089 -0.27 L 0.369 -0.27 L 0.369 -0.55 Q 0.369 -0.582 0.389 -0.583 Q 0.40900000000000003 -0.583 0.40900000000000003 -0.55 L 0.40900000000000003 -0.27 L 0.6880000000000001 -0.27 Q 0.72 -0.27 0.721 -0.25 Q 0.721 -0.23 0.6880000000000001 -0.23 L 0.40900000000000003 -0.23 Z"/></g><g transform="translate(23.070835691544726,9.107142857142858)"><path fill="rgb(0,0,0)" stroke="none" paint-order="stroke fill markers" d=" M 0.331 0.24 L 0.331 0.24 Q 0.331 0.25 0.321 0.25 Q 0.309 0.25 0.268 0.209 Q 0.20600000000000002 0.147 0.165 0.062 Q 0.099 -0.074 0.099 -0.25 Q 0.099 -0.419 0.162 -0.555 Q 0.214 -0.666 0.294 -0.733 Q 0.315 -0.75 0.321 -0.75 Q 0.331 -0.75 0.331 -0.74 Q 0.331 -0.735 0.318 -0.723 Q 0.157 -0.559 0.157 -0.25 Q 0.157 0.058 0.314 0.218 Q 0.331 0.23500000000000001 0.331 0.24 Z"/></g><g transform="translate(23.459835691544725,9.107142857142858)"><path fill="rgb(0,0,0)" stroke="none" paint-order="stroke fill markers" d=" M 0.159 -0.078 L 0.159 -0.078 L 0.293 -0.615 Q 0.297 -0.631 0.297 -0.634 Q 0.297 -0.646 0.281 -0.649 L 0.28 -0.649 L 0.28 -0.649 Q 0.278 -0.65 0.275 -0.65 Q 0.251 -0.652 0.232 -0.652 Q 0.20600000000000002 -0.652 0.20400000000000001 -0.66 Q 0.203 -0.662 0.203 -0.664 Q 0.203 -0.681 0.22 -0.683 L 0.22 -0.683 L 0.233 -0.683 L 0.5690000000000001 -0.683 Q 0.6990000000000001 -0.683 0.763 -0.582 Q 0.804 -0.518 0.804 -0.43 Q 0.804 -0.28500000000000003 0.7030000000000001 -0.159 Q 0.607 -0.042 0.47700000000000004 -0.01 Q 0.438 0 0.399 0 L 0.068 0 Q 0.043000000000000003 0 0.041 -0.008 Q 0.04 -0.009000000000000001 0.04 -0.012 Q 0.04 -0.029 0.056 -0.031 L 0.068 -0.031 Q 0.133 -0.031 0.146 -0.045 Q 0.152 -0.052000000000000005 0.158 -0.073 Q 0.158 -0.074 0.159 -0.078 M 0.375 -0.614 L 0.23800000000000002 -0.065 Q 0.233 -0.047 0.233 -0.042 Q 0.233 -0.034 0.242 -0.032 L 0.242 -0.032 L 0.242 -0.032 L 0.246 -0.032 Q 0.252 -0.031 0.268 -0.031 L 0.381 -0.031 Q 0.505 -0.031 0.595 -0.124 Q 0.604 -0.134 0.612 -0.14400000000000002 Q 0.6920000000000001 -0.248 0.713 -0.41600000000000004 Q 0.717 -0.447 0.717 -0.467 Q 0.717 -0.601 0.612 -0.639 Q 0.578 -0.652 0.536 -0.652 L 0.429 -0.652 Q 0.393 -0.652 0.385 -0.642 L 0.385 -0.642 L 0.385 -0.641 L 0.384 -0.641 L 0.384 -0.64 Q 0.38 -0.634 0.375 -0.614 Z"/></g><g transform="translate(24.287835691544725,9.257142857142858) scale(0.7,0.7)"><path fill="rgb(0,0,0)" stroke="none" paint-order="stroke fill markers" d=" M 0.231 -0.35100000000000003 L 0.231 -0.35100000000000003 L 0.189 -0.183 Q 0.17500000000000002 -0.127 0.17500000000000002 -0.098 Q 0.18 -0.014 0.249 -0.011 Q 0.317 -0.011 0.368 -0.08700000000000001 Q 0.378 -0.10300000000000001 0.379 -0.107 Q 0.387 -0.132 0.405 -0.209 L 0.452 -0.396 Q 0.46 -0.431 0.491 -0.431 Q 0.516 -0.426 0.52 -0.404 Q 0.52 -0.406 0.505 -0.337 Q 0.491 -0.28600000000000003 0.488 -0.269 L 0.46 -0.161 Q 0.44 -0.074 0.44 -0.057 Q 0.44 -0.011 0.47000000000000003 -0.011 Q 0.508 -0.011 0.534 -0.091 Q 0.539 -0.108 0.546 -0.135 Q 0.554 -0.152 0.56 -0.153 Q 0.5720000000000001 -0.153 0.5720000000000001 -0.14300000000000002 Q 0.5720000000000001 -0.128 0.554 -0.073 Q 0.548 -0.056 0.542 -0.044 Q 0.514 0.011 0.468 0.011 Q 0.41300000000000003 0.011 0.388 -0.035 Q 0.381 -0.047 0.378 -0.062 Q 0.331 -0.007 0.28500000000000003 0.006 Q 0.266 0.011 0.245 0.011 Q 0.185 0.011 0.148 -0.02 Q 0.097 0.185 0.093 0.195 Q 0.079 0.216 0.058 0.216 Q 0.035 0.216 0.031 0.195 Q 0.03 0.192 0.03 0.189 Q 0.03 0.185 0.033 0.17300000000000001 L 0.177 -0.406 Q 0.186 -0.441 0.217 -0.442 Q 0.243 -0.442 0.246 -0.41500000000000004 Q 0.246 -0.41400000000000003 0.231 -0.35100000000000003 Z"/></g><g transform="translate(24.709935691544725,9.107142857142858)"><path fill="rgb(0,0,0)" stroke="none" paint-order="stroke fill markers" d=" M 0.399 -0.135 L 0.399 -0.079 Q 0.399 -0.05 0.41100000000000003 -0.042 L 0.41100000000000003 -0.042 L 0.41100000000000003 -0.042 L 0.41200000000000003 -0.041 Q 0.429 -0.031 0.494 -0.031 L 0.527 -0.031 L 0.527 0 Q 0.491 -0.003 0.357 -0.003 Q 0.224 -0.003 0.188 0 L 0.188 -0.031 L 0.221 -0.031 Q 0.3 -0.031 0.312 -0.05 Q 0.314 -0.054 0.315 -0.06 Q 0.316 -0.066 0.316 -0.079 L 0.316 -0.135 Q 0.184 -0.148 0.108 -0.225 Q 0.056 -0.278 0.056 -0.342 Q 0.056 -0.424 0.14 -0.485 Q 0.212 -0.538 0.316 -0.548 L 0.316 -0.604 Q 0.316 -0.633 0.304 -0.641 L 0.304 -0.641 L 0.304 -0.641 L 0.303 -0.642 Q 0.28600000000000003 -0.652 0.221 -0.652 L 0.188 -0.652 L 0.188 -0.683 Q 0.224 -0.68 0.358 -0.68 Q 0.491 -0.68 0.527 -0.683 L 0.527 -0.652 L 0.494 -0.652 Q 0.41500000000000004 -0.652 0.403 -0.633 Q 0.399 -0.626 0.399 -0.604 L 0.399 -0.548 Q 0.531 -0.538 0.609 -0.461 Q 0.665 -0.40700000000000003 0.665 -0.341 Q 0.665 -0.259 0.581 -0.198 Q 0.506 -0.14300000000000002 0.399 -0.135 M 0.316 -0.158 L 0.316 -0.525 Q 0.156 -0.504 0.156 -0.341 Q 0.156 -0.179 0.316 -0.158 M 0.399 -0.526 L 0.399 -0.157 Q 0.5650000000000001 -0.177 0.5650000000000001 -0.342 Q 0.5650000000000001 -0.507 0.399 -0.526 Z"/></g><g transform="translate(25.431935691544727,9.107142857142858)"><path fill="rgb(0,0,0)" stroke="none" paint-order="stroke fill markers" d=" M 0.289 -0.25 L 0.289 -0.25 Q 0.289 -0.081 0.226 0.055 Q 0.17400000000000002 0.166 0.094 0.233 Q 0.073 0.25 0.067 0.25 Q 0.057 0.25 0.057 0.24 Q 0.057 0.23500000000000001 0.07 0.223 Q 0.231 0.059000000000000004 0.231 -0.25 Q 0.231 -0.555 0.081 -0.712 L 0.076 -0.717 Q 0.057 -0.735 0.057 -0.74 Q 0.057 -0.75 0.067 -0.75 Q 0.079 -0.75 0.12 -0.709 Q 0.182 -0.647 0.223 -0.562 Q 0.289 -0.426 0.289 -0.25 Z"/></g><g transform="translate(25.820935691544726,8.627418457142857) scale(0.7,0.7)"><path fill="rgb(0,0,0)" stroke="none" paint-order="stroke fill markers" d=" M 0.231 -0.421 L 0.231 -0.421 Q 0.234 -0.383 0.241 -0.35000000000000003 Q 0.255 -0.28 0.255 -0.232 L 0.255 -0.218 Q 0.255 -0.098 0.246 0.044 Q 0.242 0.137 0.23500000000000001 0.198 Q 0.233 0.214 0.227 0.215 L 0.227 0.215 Q 0.224 0.216 0.221 0.216 Q 0.21 0.216 0.209 0.203 Q 0.20800000000000002 0.201 0.20800000000000002 0.196 Q 0.188 -0.015 0.188 -0.218 Q 0.188 -0.277 0.199 -0.333 L 0.199 -0.334 L 0.199 -0.335 Q 0.2 -0.342 0.202 -0.35100000000000003 Q 0.209 -0.388 0.212 -0.421 Q 0.186 -0.418 0.164 -0.41100000000000003 Q 0.115 -0.397 0.093 -0.397 Q 0.058 -0.397 0.056 -0.431 Q 0.056 -0.458 0.083 -0.463 Q 0.088 -0.464 0.093 -0.464 Q 0.11800000000000001 -0.464 0.162 -0.45 Q 0.194 -0.442 0.212 -0.44 Q 0.21 -0.485 0.201 -0.547 Q 0.188 -0.625 0.188 -0.664 Q 0.188 -0.705 0.222 -0.705 Q 0.255 -0.705 0.255 -0.664 Q 0.255 -0.634 0.244 -0.553 Q 0.234 -0.491 0.231 -0.44 Q 0.257 -0.443 0.279 -0.45 Q 0.328 -0.464 0.35000000000000003 -0.464 Q 0.385 -0.464 0.387 -0.43 Q 0.387 -0.403 0.36 -0.398 L 0.359 -0.398 Q 0.355 -0.397 0.35000000000000003 -0.397 Q 0.325 -0.397 0.281 -0.41100000000000003 Q 0.249 -0.419 0.231 -0.421 Z"/></g><g transform="translate(26.145968034543298,9.107142857142858)"><path fill="rgb(0,0,0)" stroke="none" paint-order="stroke fill markers" d=" M 0.331 0.24 L 0.331 0.24 Q 0.331 0.25 0.321 0.25 Q 0.309 0.25 0.268 0.209 Q 0.20600000000000002 0.147 0.165 0.062 Q 0.099 -0.074 0.099 -0.25 Q 0.099 -0.419 0.162 -0.555 Q 0.214 -0.666 0.294 -0.733 Q 0.315 -0.75 0.321 -0.75 Q 0.331 -0.75 0.331 -0.74 Q 0.331 -0.735 0.318 -0.723 Q 0.157 -0.559 0.157 -0.25 Q 0.157 0.058 0.314 0.218 Q 0.331 0.23500000000000001 0.331 0.24 Z"/></g><g transform="translate(26.534968034543297,9.107142857142858)"><path fill="rgb(0,0,0)" stroke="none" paint-order="stroke fill markers" d=" M 0.159 -0.078 L 0.159 -0.078 L 0.293 -0.615 Q 0.297 -0.631 0.297 -0.634 Q 0.297 -0.646 0.281 -0.649 L 0.28 -0.649 L 0.28 -0.649 Q 0.278 -0.65 0.275 -0.65 Q 0.251 -0.652 0.232 -0.652 Q 0.20600000000000002 -0.652 0.20400000000000001 -0.66 Q 0.203 -0.662 0.203 -0.664 Q 0.203 -0.681 0.22 -0.683 L 0.22 -0.683 L 0.233 -0.683 L 0.5690000000000001 -0.683 Q 0.6990000000000001 -0.683 0.763 -0.582 Q 0.804 -0.518 0.804 -0.43 Q 0.804 -0.28500000000000003 0.7030000000000001 -0.159 Q 0.607 -0.042 0.47700000000000004 -0.01 Q 0.438 0 0.399 0 L 0.068 0 Q 0.043000000000000003 0 0.041 -0.008 Q 0.04 -0.009000000000000001 0.04 -0.012 Q 0.04 -0.029 0.056 -0.031 L 0.068 -0.031 Q 0.133 -0.031 0.146 -0.045 Q 0.152 -0.052000000000000005 0.158 -0.073 Q 0.158 -0.074 0.159 -0.078 M 0.375 -0.614 L 0.23800000000000002 -0.065 Q 0.233 -0.047 0.233 -0.042 Q 0.233 -0.034 0.242 -0.032 L 0.242 -0.032 L 0.242 -0.032 L 0.246 -0.032 Q 0.252 -0.031 0.268 -0.031 L 0.381 -0.031 Q 0.505 -0.031 0.595 -0.124 Q 0.604 -0.134 0.612 -0.14400000000000002 Q 0.6920000000000001 -0.248 0.713 -0.41600000000000004 Q 0.717 -0.447 0.717 -0.467 Q 0.717 -0.601 0.612 -0.639 Q 0.578 -0.652 0.536 -0.652 L 0.429 -0.652 Q 0.393 -0.652 0.385 -0.642 L 0.385 -0.642 L 0.385 -0.641 L 0.384 -0.641 L 0.384 -0.64 Q 0.38 -0.634 0.375 -0.614 Z"/></g><g transform="translate(27.3909680345433,8.694250857142858) scale(0.7,0.7)"><path fill="rgb(0,0,0)" stroke="none" paint-order="stroke fill markers" d=" M 0.231 -0.35100000000000003 L 0.231 -0.35100000000000003 L 0.189 -0.183 Q 0.17500000000000002 -0.127 0.17500000000000002 -0.098 Q 0.18 -0.014 0.249 -0.011 Q 0.317 -0.011 0.368 -0.08700000000000001 Q 0.378 -0.10300000000000001 0.379 -0.107 Q 0.387 -0.132 0.405 -0.209 L 0.452 -0.396 Q 0.46 -0.431 0.491 -0.431 Q 0.516 -0.426 0.52 -0.404 Q 0.52 -0.406 0.505 -0.337 Q 0.491 -0.28600000000000003 0.488 -0.269 L 0.46 -0.161 Q 0.44 -0.074 0.44 -0.057 Q 0.44 -0.011 0.47000000000000003 -0.011 Q 0.508 -0.011 0.534 -0.091 Q 0.539 -0.108 0.546 -0.135 Q 0.554 -0.152 0.56 -0.153 Q 0.5720000000000001 -0.153 0.5720000000000001 -0.14300000000000002 Q 0.5720000000000001 -0.128 0.554 -0.073 Q 0.548 -0.056 0.542 -0.044 Q 0.514 0.011 0.468 0.011 Q 0.41300000000000003 0.011 0.388 -0.035 Q 0.381 -0.047 0.378 -0.062 Q 0.331 -0.007 0.28500000000000003 0.006 Q 0.266 0.011 0.245 0.011 Q 0.185 0.011 0.148 -0.02 Q 0.097 0.185 0.093 0.195 Q 0.079 0.216 0.058 0.216 Q 0.035 0.216 0.031 0.195 Q 0.03 0.192 0.03 0.189 Q 0.03 0.185 0.033 0.17300000000000001 L 0.177 -0.406 Q 0.186 -0.441 0.217 -0.442 Q 0.243 -0.442 0.246 -0.41500000000000004 Q 0.246 -0.41400000000000003 0.231 -0.35100000000000003 Z"/></g><g transform="translate(27.827300377541867,9.107142857142858)"><path fill="rgb(0,0,0)" stroke="none" paint-order="stroke fill markers" d=" M 0.399 -0.135 L 0.399 -0.079 Q 0.399 -0.05 0.41100000000000003 -0.042 L 0.41100000000000003 -0.042 L 0.41100000000000003 -0.042 L 0.41200000000000003 -0.041 Q 0.429 -0.031 0.494 -0.031 L 0.527 -0.031 L 0.527 0 Q 0.491 -0.003 0.357 -0.003 Q 0.224 -0.003 0.188 0 L 0.188 -0.031 L 0.221 -0.031 Q 0.3 -0.031 0.312 -0.05 Q 0.314 -0.054 0.315 -0.06 Q 0.316 -0.066 0.316 -0.079 L 0.316 -0.135 Q 0.184 -0.148 0.108 -0.225 Q 0.056 -0.278 0.056 -0.342 Q 0.056 -0.424 0.14 -0.485 Q 0.212 -0.538 0.316 -0.548 L 0.316 -0.604 Q 0.316 -0.633 0.304 -0.641 L 0.304 -0.641 L 0.304 -0.641 L 0.303 -0.642 Q 0.28600000000000003 -0.652 0.221 -0.652 L 0.188 -0.652 L 0.188 -0.683 Q 0.224 -0.68 0.358 -0.68 Q 0.491 -0.68 0.527 -0.683 L 0.527 -0.652 L 0.494 -0.652 Q 0.41500000000000004 -0.652 0.403 -0.633 Q 0.399 -0.626 0.399 -0.604 L 0.399 -0.548 Q 0.531 -0.538 0.609 -0.461 Q 0.665 -0.40700000000000003 0.665 -0.341 Q 0.665 -0.259 0.581 -0.198 Q 0.506 -0.14300000000000002 0.399 -0.135 M 0.316 -0.158 L 0.316 -0.525 Q 0.156 -0.504 0.156 -0.341 Q 0.156 -0.179 0.316 -0.158 M 0.399 -0.526 L 0.399 -0.157 Q 0.5650000000000001 -0.177 0.5650000000000001 -0.342 Q 0.5650000000000001 -0.507 0.399 -0.526 Z"/></g><g transform="translate(28.54930037754187,9.107142857142858)"><path fill="rgb(0,0,0)" stroke="none" paint-order="stroke fill markers" d=" M 0.289 -0.25 L 0.289 -0.25 Q 0.289 -0.081 0.226 0.055 Q 0.17400000000000002 0.166 0.094 0.233 Q 0.073 0.25 0.067 0.25 Q 0.057 0.25 0.057 0.24 Q 0.057 0.23500000000000001 0.07 0.223 Q 0.231 0.059000000000000004 0.231 -0.25 Q 0.231 -0.555 0.081 -0.712 L 0.076 -0.717 Q 0.057 -0.735 0.057 -0.74 Q 0.057 -0.75 0.067 -0.75 Q 0.079 -0.75 0.12 -0.709 Q 0.182 -0.647 0.223 -0.562 Q 0.289 -0.426 0.289 -0.25 Z"/></g><g transform="translate(29.104967044208536,9.107142857142858)"><path fill="rgb(0,0,0)" stroke="none" paint-order="stroke fill markers" d=" M 0.40900000000000003 -0.23 L 0.40900000000000003 0.05 Q 0.40900000000000003 0.082 0.389 0.083 Q 0.369 0.083 0.369 0.05 L 0.369 -0.23 L 0.089 -0.23 Q 0.057 -0.23 0.056 -0.25 Q 0.056 -0.27 0.089 -0.27 L 0.369 -0.27 L 0.369 -0.55 Q 0.369 -0.582 0.389 -0.583 Q 0.40900000000000003 -0.583 0.40900000000000003 -0.55 L 0.40900000000000003 -0.27 L 0.6880000000000001 -0.27 Q 0.72 -0.27 0.721 -0.25 Q 0.721 -0.23 0.6880000000000001 -0.23 L 0.40900000000000003 -0.23 Z"/></g><g transform="translate(30.139346889627326,8.430634857142858)"><path fill="rgb(0,0,0)" stroke="none" paint-order="stroke fill markers" d=" M 0.294 -0.64 L 0.294 -0.079 Q 0.294 -0.049 0.306 -0.041 Q 0.323 -0.031 0.387 -0.031 L 0.419 -0.031 L 0.419 0 Q 0.384 -0.003 0.257 -0.003 Q 0.13 -0.003 0.095 0 L 0.095 -0.031 L 0.127 -0.031 Q 0.20400000000000001 -0.031 0.215 -0.049 L 0.216 -0.05 Q 0.22 -0.058 0.22 -0.079 L 0.22 -0.597 Q 0.168 -0.5710000000000001 0.089 -0.5710000000000001 L 0.089 -0.602 Q 0.209 -0.602 0.271 -0.666 Q 0.29 -0.666 0.293 -0.659 L 0.293 -0.659 L 0.293 -0.658 Q 0.294 -0.655 0.294 -0.64 Z"/></g><rect fill="rgb(0,0,0)" stroke="none" x="30.139346889627326" y="8.837143357142857" width="0.5" height="0.039999"/><g transform="translate(30.139346889627326,9.793093857142857)"><path fill="rgb(0,0,0)" stroke="none" paint-order="stroke fill markers" d=" M 0.028 -0.165 L 0.028 -0.196 L 0.335 -0.665 Q 0.343 -0.677 0.355 -0.677 Q 0.369 -0.677 0.371 -0.666 L 0.371 -0.651 L 0.371 -0.196 L 0.47100000000000003 -0.196 L 0.47100000000000003 -0.165 L 0.371 -0.165 L 0.371 -0.078 Q 0.371 -0.047 0.383 -0.04 Q 0.397 -0.031 0.447 -0.031 L 0.468 -0.031 L 0.468 0 Q 0.427 -0.003 0.332 -0.003 Q 0.23800000000000002 -0.003 0.197 0 L 0.197 -0.031 L 0.218 -0.031 Q 0.28 -0.031 0.29 -0.048 Q 0.294 -0.055 0.294 -0.078 L 0.294 -0.165 L 0.028 -0.165 M 0.3 -0.196 L 0.3 -0.5690000000000001 L 0.056 -0.196 L 0.3 -0.196 Z"/></g><g transform="translate(30.840171179490568,9.107142857142858)"><path fill="rgb(0,0,0)" stroke="none" paint-order="stroke fill markers" d=" M 0.303 -0.325 L 0.241 -0.076 Q 0.23700000000000002 -0.061 0.23700000000000002 -0.053 Q 0.23700000000000002 -0.039 0.25 -0.036000000000000004 Q 0.257 -0.034 0.269 -0.033 Q 0.294 -0.031 0.321 -0.031 Q 0.34600000000000003 -0.031 0.34900000000000003 -0.03 L 0.354 -0.023 Q 0.355 -0.021 0.355 -0.019 Q 0.355 0 0.334 0 L 0.186 -0.003 L 0.185 -0.003 L 0.054 0 L 0.053 0 Q 0.038 0 0.038 -0.012 Q 0.038 -0.029 0.054 -0.031 L 0.066 -0.031 Q 0.131 -0.031 0.14400000000000002 -0.045 Q 0.15 -0.052000000000000005 0.156 -0.073 Q 0.156 -0.074 0.157 -0.078 L 0.289 -0.607 Q 0.294 -0.625 0.294 -0.631 Q 0.294 -0.648 0.248 -0.649 L 0.247 -0.649 L 0.229 -0.649 Q 0.203 -0.649 0.201 -0.66 Q 0.201 -0.678 0.217 -0.68 L 0.231 -0.68 L 0.721 -0.68 Q 0.745 -0.68 0.747 -0.673 L 0.748 -0.673 Q 0.75 -0.667 0.748 -0.653 L 0.728 -0.48 Q 0.721 -0.457 0.714 -0.455 Q 0.7020000000000001 -0.455 0.7020000000000001 -0.467 Q 0.7020000000000001 -0.47200000000000003 0.704 -0.485 Q 0.707 -0.512 0.707 -0.539 Q 0.707 -0.606 0.673 -0.628 L 0.672 -0.629 Q 0.64 -0.649 0.561 -0.649 L 0.429 -0.649 Q 0.392 -0.649 0.385 -0.638 L 0.384 -0.638 L 0.384 -0.637 Q 0.381 -0.633 0.379 -0.625 L 0.379 -0.624 L 0.378 -0.623 Q 0.377 -0.619 0.375 -0.61 L 0.311 -0.356 L 0.402 -0.356 Q 0.47500000000000003 -0.356 0.5 -0.383 L 0.501 -0.384 Q 0.518 -0.403 0.531 -0.452 Q 0.536 -0.47100000000000003 0.546 -0.47300000000000003 Q 0.557 -0.47300000000000003 0.558 -0.462 Q 0.558 -0.457 0.555 -0.446 L 0.5 -0.229 Q 0.49 -0.209 0.485 -0.20800000000000002 Q 0.47300000000000003 -0.20800000000000002 0.47300000000000003 -0.22 Q 0.47300000000000003 -0.224 0.47600000000000003 -0.231 Q 0.483 -0.261 0.483 -0.28 Q 0.483 -0.309 0.461 -0.318 L 0.461 -0.318 Q 0.442 -0.325 0.4 -0.325 L 0.303 -0.325 Z"/></g><g transform="translate(31.48317117949057,9.257142857142858) scale(0.7,0.7)"><path fill="rgb(0,0,0)" stroke="none" paint-order="stroke fill markers" d=" M 0.231 -0.35100000000000003 L 0.231 -0.35100000000000003 L 0.189 -0.183 Q 0.17500000000000002 -0.127 0.17500000000000002 -0.098 Q 0.18 -0.014 0.249 -0.011 Q 0.317 -0.011 0.368 -0.08700000000000001 Q 0.378 -0.10300000000000001 0.379 -0.107 Q 0.387 -0.132 0.405 -0.209 L 0.452 -0.396 Q 0.46 -0.431 0.491 -0.431 Q 0.516 -0.426 0.52 -0.404 Q 0.52 -0.406 0.505 -0.337 Q 0.491 -0.28600000000000003 0.488 -0.269 L 0.46 -0.161 Q 0.44 -0.074 0.44 -0.057 Q 0.44 -0.011 0.47000000000000003 -0.011 Q 0.508 -0.011 0.534 -0.091 Q 0.539 -0.108 0.546 -0.135 Q 0.554 -0.152 0.56 -0.153 Q 0.5720000000000001 -0.153 0.5720000000000001 -0.14300000000000002 Q 0.5720000000000001 -0.128 0.554 -0.073 Q 0.548 -0.056 0.542 -0.044 Q 0.514 0.011 0.468 0.011 Q 0.41300000000000003 0.011 0.388 -0.035 Q 0.381 -0.047 0.378 -0.062 Q 0.331 -0.007 0.28500000000000003 0.006 Q 0.266 0.011 0.245 0.011 Q 0.185 0.011 0.148 -0.02 Q 0.097 0.185 0.093 0.195 Q 0.079 0.216 0.058 0.216 Q 0.035 0.216 0.031 0.195 Q 0.03 0.192 0.03 0.189 Q 0.03 0.185 0.033 0.17300000000000001 L 0.177 -0.406 Q 0.186 -0.441 0.217 -0.442 Q 0.243 -0.442 0.246 -0.41500000000000004 Q 0.246 -0.41400000000000003 0.231 -0.35100000000000003 Z"/></g><g transform="translate(31.90527117949057,9.257142857142858) scale(0.7,0.7)"><path fill="rgb(0,0,0)" stroke="none" paint-order="stroke fill markers" d=" M 0.224 -0.431 L 0.126 -0.033 Q 0.258 -0.076 0.353 -0.199 Q 0.422 -0.289 0.456 -0.40900000000000003 Q 0.465 -0.441 0.495 -0.442 Q 0.521 -0.442 0.524 -0.41500000000000004 Q 0.524 -0.391 0.497 -0.33 Q 0.451 -0.228 0.365 -0.147 Q 0.23900000000000002 -0.03 0.09 -0.001 Q 0.08600000000000001 -0.001 0.083 0 L 0.069 0 Q 0.053 0 0.053 -0.012 Q 0.053 -0.016 0.064 -0.057 L 0.125 -0.302 Q 0.14400000000000002 -0.375 0.14400000000000002 -0.383 Q 0.14400000000000002 -0.394 0.13 -0.397 L 0.13 -0.397 Q 0.11800000000000001 -0.4 0.094 -0.4 Q 0.07200000000000001 -0.4 0.07 -0.41200000000000003 Q 0.07 -0.429 0.089 -0.432 L 0.211 -0.442 Q 0.224 -0.442 0.224 -0.431 Z"/></g><g transform="translate(32.29587117949057,9.107142857142858)"><path fill="rgb(0,0,0)" stroke="none" paint-order="stroke fill markers" d=" M 0.303 -0.325 L 0.241 -0.076 Q 0.23700000000000002 -0.061 0.23700000000000002 -0.053 Q 0.23700000000000002 -0.039 0.25 -0.036000000000000004 Q 0.257 -0.034 0.269 -0.033 Q 0.294 -0.031 0.321 -0.031 Q 0.34600000000000003 -0.031 0.34900000000000003 -0.03 L 0.354 -0.023 Q 0.355 -0.021 0.355 -0.019 Q 0.355 0 0.334 0 L 0.186 -0.003 L 0.185 -0.003 L 0.054 0 L 0.053 0 Q 0.038 0 0.038 -0.012 Q 0.038 -0.029 0.054 -0.031 L 0.066 -0.031 Q 0.131 -0.031 0.14400000000000002 -0.045 Q 0.15 -0.052000000000000005 0.156 -0.073 Q 0.156 -0.074 0.157 -0.078 L 0.289 -0.607 Q 0.294 -0.625 0.294 -0.631 Q 0.294 -0.648 0.248 -0.649 L 0.247 -0.649 L 0.229 -0.649 Q 0.203 -0.649 0.201 -0.66 Q 0.201 -0.678 0.217 -0.68 L 0.231 -0.68 L 0.721 -0.68 Q 0.745 -0.68 0.747 -0.673 L 0.748 -0.673 Q 0.75 -0.667 0.748 -0.653 L 0.728 -0.48 Q 0.721 -0.457 0.714 -0.455 Q 0.7020000000000001 -0.455 0.7020000000000001 -0.467 Q 0.7020000000000001 -0.47200000000000003 0.704 -0.485 Q 0.707 -0.512 0.707 -0.539 Q 0.707 -0.606 0.673 -0.628 L 0.672 -0.629 Q 0.64 -0.649 0.561 -0.649 L 0.429 -0.649 Q 0.392 -0.649 0.385 -0.638 L 0.384 -0.638 L 0.384 -0.637 Q 0.381 -0.633 0.379 -0.625 L 0.379 -0.624 L 0.378 -0.623 Q 0.377 -0.619 0.375 -0.61 L 0.311 -0.356 L 0.402 -0.356 Q 0.47500000000000003 -0.356 0.5 -0.383 L 0.501 -0.384 Q 0.518 -0.403 0.531 -0.452 Q 0.536 -0.47100000000000003 0.546 -0.47300000000000003 Q 0.557 -0.47300000000000003 0.558 -0.462 Q 0.558 -0.457 0.555 -0.446 L 0.5 -0.229 Q 0.49 -0.209 0.485 -0.20800000000000002 Q 0.47300000000000003 -0.20800000000000002 0.47300000000000003 -0.22 Q 0.47300000000000003 -0.224 0.47600000000000003 -0.231 Q 0.483 -0.261 0.483 -0.28 Q 0.483 -0.309 0.461 -0.318 L 0.461 -0.318 Q 0.442 -0.325 0.4 -0.325 L 0.303 -0.325 Z"/></g><g transform="translate(33.07787117949057,8.694250857142858) scale(0.7,0.7)"><path fill="rgb(0,0,0)" stroke="none" paint-order="stroke fill markers" d=" M 0.231 -0.35100000000000003 L 0.231 -0.35100000000000003 L 0.189 -0.183 Q 0.17500000000000002 -0.127 0.17500000000000002 -0.098 Q 0.18 -0.014 0.249 -0.011 Q 0.317 -0.011 0.368 -0.08700000000000001 Q 0.378 -0.10300000000000001 0.379 -0.107 Q 0.387 -0.132 0.405 -0.209 L 0.452 -0.396 Q 0.46 -0.431 0.491 -0.431 Q 0.516 -0.426 0.52 -0.404 Q 0.52 -0.406 0.505 -0.337 Q 0.491 -0.28600000000000003 0.488 -0.269 L 0.46 -0.161 Q 0.44 -0.074 0.44 -0.057 Q 0.44 -0.011 0.47000000000000003 -0.011 Q 0.508 -0.011 0.534 -0.091 Q 0.539 -0.108 0.546 -0.135 Q 0.554 -0.152 0.56 -0.153 Q 0.5720000000000001 -0.153 0.5720000000000001 -0.14300000000000002 Q 0.5720000000000001 -0.128 0.554 -0.073 Q 0.548 -0.056 0.542 -0.044 Q 0.514 0.011 0.468 0.011 Q 0.41300000000000003 0.011 0.388 -0.035 Q 0.381 -0.047 0.378 -0.062 Q 0.331 -0.007 0.28500000000000003 0.006 Q 0.266 0.011 0.245 0.011 Q 0.185 0.011 0.148 -0.02 Q 0.097 0.185 0.093 0.195 Q 0.079 0.216 0.058 0.216 Q 0.035 0.216 0.031 0.195 Q 0.03 0.192 0.03 0.189 Q 0.03 0.185 0.033 0.17300000000000001 L 0.177 -0.406 Q 0.186 -0.441 0.217 -0.442 Q 0.243 -0.442 0.246 -0.41500000000000004 Q 0.246 -0.41400000000000003 0.231 -0.35100000000000003 Z"/></g><g transform="translate(33.49997117949057,8.694250857142858) scale(0.7,0.7)"><path fill="rgb(0,0,0)" stroke="none" paint-order="stroke fill markers" d=" M 0.224 -0.431 L 0.126 -0.033 Q 0.258 -0.076 0.353 -0.199 Q 0.422 -0.289 0.456 -0.40900000000000003 Q 0.465 -0.441 0.495 -0.442 Q 0.521 -0.442 0.524 -0.41500000000000004 Q 0.524 -0.391 0.497 -0.33 Q 0.451 -0.228 0.365 -0.147 Q 0.23900000000000002 -0.03 0.09 -0.001 Q 0.08600000000000001 -0.001 0.083 0 L 0.069 0 Q 0.053 0 0.053 -0.012 Q 0.053 -0.016 0.064 -0.057 L 0.125 -0.302 Q 0.14400000000000002 -0.375 0.14400000000000002 -0.383 Q 0.14400000000000002 -0.394 0.13 -0.397 L 0.13 -0.397 Q 0.11800000000000001 -0.4 0.094 -0.4 Q 0.07200000000000001 -0.4 0.07 -0.41200000000000003 Q 0.07 -0.429 0.089 -0.432 L 0.211 -0.442 Q 0.224 -0.442 0.224 -0.431 Z"/></g><g transform="translate(34.12702574471136,9.107142857142858)"><path fill="rgb(0,0,0)" stroke="none" paint-order="stroke fill markers" d=" M 0.40900000000000003 -0.23 L 0.40900000000000003 0.05 Q 0.40900000000000003 0.082 0.389 0.083 Q 0.369 0.083 0.369 0.05 L 0.369 -0.23 L 0.089 -0.23 Q 0.057 -0.23 0.056 -0.25 Q 0.056 -0.27 0.089 -0.27 L 0.369 -0.27 L 0.369 -0.55 Q 0.369 -0.582 0.389 -0.583 Q 0.40900000000000003 -0.583 0.40900000000000003 -0.55 L 0.40900000000000003 -0.27 L 0.6880000000000001 -0.27 Q 0.72 -0.27 0.721 -0.25 Q 0.721 -0.23 0.6880000000000001 -0.23 L 0.40900000000000003 -0.23 Z"/></g><g transform="translate(35.16140559013015,8.430634857142858)"><path fill="rgb(0,0,0)" stroke="none" paint-order="stroke fill markers" d=" M 0.294 -0.64 L 0.294 -0.079 Q 0.294 -0.049 0.306 -0.041 Q 0.323 -0.031 0.387 -0.031 L 0.419 -0.031 L 0.419 0 Q 0.384 -0.003 0.257 -0.003 Q 0.13 -0.003 0.095 0 L 0.095 -0.031 L 0.127 -0.031 Q 0.20400000000000001 -0.031 0.215 -0.049 L 0.216 -0.05 Q 0.22 -0.058 0.22 -0.079 L 0.22 -0.597 Q 0.168 -0.5710000000000001 0.089 -0.5710000000000001 L 0.089 -0.602 Q 0.209 -0.602 0.271 -0.666 Q 0.29 -0.666 0.293 -0.659 L 0.293 -0.659 L 0.293 -0.658 Q 0.294 -0.655 0.294 -0.64 Z"/></g><rect fill="rgb(0,0,0)" stroke="none" x="35.16140559013015" y="8.837143357142857" width="0.5" height="0.039999"/><g transform="translate(35.16140559013015,9.793093857142857)"><path fill="rgb(0,0,0)" stroke="none" paint-order="stroke fill markers" d=" M 0.449 -0.17400000000000002 L 0.449 -0.17400000000000002 L 0.421 0 L 0.05 0 Q 0.05 -0.025 0.056 -0.032 L 0.061 -0.037 L 0.253 -0.251 Q 0.358 -0.369 0.358 -0.47200000000000003 Q 0.358 -0.561 0.304 -0.607 L 0.303 -0.608 L 0.302 -0.608 Q 0.27 -0.635 0.224 -0.635 Q 0.152 -0.635 0.109 -0.5730000000000001 Q 0.097 -0.555 0.089 -0.533 Q 0.092 -0.534 0.10200000000000001 -0.534 Q 0.14200000000000002 -0.534 0.153 -0.498 L 0.153 -0.497 Q 0.155 -0.49 0.155 -0.482 Q 0.155 -0.442 0.117 -0.431 Q 0.109 -0.429 0.10300000000000001 -0.429 Q 0.066 -0.429 0.054 -0.46 Q 0.05 -0.47100000000000003 0.05 -0.485 Q 0.05 -0.562 0.109 -0.617 Q 0.162 -0.666 0.23700000000000002 -0.666 Q 0.34700000000000003 -0.666 0.40800000000000003 -0.592 Q 0.443 -0.549 0.448 -0.49 Q 0.449 -0.481 0.449 -0.47200000000000003 Q 0.449 -0.399 0.394 -0.333 Q 0.365 -0.299 0.304 -0.243 L 0.243 -0.189 L 0.233 -0.18 L 0.127 -0.077 L 0.307 -0.077 Q 0.395 -0.077 0.402 -0.085 Q 0.41200000000000003 -0.099 0.424 -0.17400000000000002 L 0.449 -0.17400000000000002 Z"/></g><g transform="translate(35.862229879993386,9.107142857142858)"><path fill="rgb(0,0,0)" stroke="none" paint-order="stroke fill markers" d=" M 0.666 -0.677 L 0.685 -0.452 L 0.66 -0.452 Q 0.65 -0.5660000000000001 0.628 -0.6 L 0.628 -0.601 Q 0.603 -0.639 0.525 -0.645 Q 0.506 -0.646 0.48 -0.646 Q 0.434 -0.646 0.423 -0.644 Q 0.406 -0.631 0.405 -0.606 L 0.405 -0.079 Q 0.405 -0.051000000000000004 0.417 -0.043000000000000003 Q 0.436 -0.031 0.51 -0.031 L 0.55 -0.031 L 0.55 0 Q 0.509 -0.003 0.36 -0.003 Q 0.212 -0.003 0.171 0 L 0.171 -0.031 L 0.211 -0.031 Q 0.299 -0.031 0.311 -0.05 Q 0.314 -0.055 0.315 -0.062 Q 0.316 -0.067 0.316 -0.079 L 0.316 -0.606 Q 0.316 -0.634 0.307 -0.64 L 0.306 -0.64 L 0.305 -0.641 L 0.304 -0.641 Q 0.301 -0.643 0.295 -0.644 Q 0.28500000000000003 -0.646 0.241 -0.646 Q 0.139 -0.646 0.106 -0.616 L 0.10200000000000001 -0.612 L 0.101 -0.611 L 0.101 -0.611 Q 0.074 -0.581 0.064 -0.481 Q 0.062 -0.46900000000000003 0.061 -0.452 L 0.036000000000000004 -0.452 L 0.055 -0.677 L 0.666 -0.677 Z"/></g><g transform="translate(36.50122987999339,9.107142857142858)"><path fill="rgb(0,0,0)" stroke="none" paint-order="stroke fill markers" d=" M 0.17200000000000001 -0.078 Q 0.17200000000000001 -0.047 0.184 -0.04 L 0.184 -0.04 L 0.185 -0.039 Q 0.199 -0.031 0.248 -0.031 L 0.269 -0.031 L 0.269 0 Q 0.229 -0.003 0.14200000000000002 -0.003 Q 0.145 -0.003 0.028 0 L 0.028 -0.031 Q 0.08700000000000001 -0.031 0.097 -0.04 L 0.099 -0.042 Q 0.106 -0.05 0.106 -0.076 L 0.106 -0.34400000000000003 Q 0.106 -0.383 0.091 -0.392 Q 0.079 -0.399 0.048 -0.4 L 0.028 -0.4 L 0.028 -0.431 L 0.167 -0.442 L 0.167 -0.332 Q 0.194 -0.41600000000000004 0.256 -0.437 Q 0.272 -0.442 0.29 -0.442 Q 0.337 -0.442 0.357 -0.40700000000000003 Q 0.364 -0.395 0.364 -0.381 Q 0.364 -0.34600000000000003 0.331 -0.338 Q 0.326 -0.337 0.321 -0.337 Q 0.29 -0.337 0.281 -0.364 Q 0.278 -0.371 0.278 -0.38 Q 0.278 -0.40700000000000003 0.301 -0.419 Q 0.299 -0.42 0.29 -0.42 Q 0.223 -0.42 0.191 -0.338 Q 0.17200000000000001 -0.291 0.17200000000000001 -0.232 L 0.17200000000000001 -0.078 Z"/></g><g transform="translate(36.893229879993385,9.107142857142858)"><path fill="rgb(0,0,0)" stroke="none" paint-order="stroke fill markers" d=" M 0.28300000000000003 -0.5630000000000001 L 0.28300000000000003 -0.383 Q 0.28300000000000003 -0.306 0.214 -0.27 Q 0.193 -0.258 0.165 -0.25 Q 0.266 -0.221 0.281 -0.147 Q 0.28300000000000003 -0.137 0.28300000000000003 -0.056 L 0.28300000000000003 0.094 Q 0.28300000000000003 0.131 0.28600000000000003 0.14200000000000002 Q 0.299 0.192 0.354 0.215 Q 0.38 0.226 0.41100000000000003 0.228 Q 0.426 0.229 0.427 0.23900000000000002 Q 0.427 0.25 0.40700000000000003 0.25 Q 0.33 0.25 0.276 0.217 Q 0.272 0.215 0.268 0.212 Q 0.223 0.18 0.218 0.132 Q 0.216 0.117 0.216 0.083 L 0.216 -0.115 Q 0.216 -0.209 0.122 -0.233 Q 0.106 -0.23800000000000002 0.088 -0.23900000000000002 Q 0.073 -0.24 0.07200000000000001 -0.25 Q 0.07200000000000001 -0.261 0.08600000000000001 -0.261 Q 0.149 -0.265 0.19 -0.306 Q 0.211 -0.329 0.214 -0.364 Q 0.216 -0.382 0.216 -0.444 L 0.216 -0.627 Q 0.218 -0.6880000000000001 0.292 -0.725 Q 0.343 -0.75 0.40700000000000003 -0.75 Q 0.425 -0.75 0.427 -0.739 Q 0.427 -0.73 0.418 -0.728 Q 0.35000000000000003 -0.724 0.312 -0.687 L 0.311 -0.686 L 0.307 -0.682 Q 0.28600000000000003 -0.66 0.28400000000000003 -0.617 L 0.28400000000000003 -0.616 Q 0.28300000000000003 -0.602 0.28300000000000003 -0.5630000000000001 Z"/></g><g transform="translate(37.393229879993385,9.107142857142858)"><path fill="rgb(0,0,0)" stroke="none" paint-order="stroke fill markers" d=" M 0.76 -0.6950000000000001 L 0.6970000000000001 -0.44 Q 0.6920000000000001 -0.422 0.687 -0.421 L 0.686 -0.42 L 0.679 -0.42 Q 0.664 -0.42 0.664 -0.43 L 0.667 -0.47900000000000004 L 0.667 -0.481 Q 0.667 -0.605 0.589 -0.652 L 0.588 -0.653 Q 0.553 -0.674 0.506 -0.674 Q 0.399 -0.674 0.303 -0.593 Q 0.276 -0.5710000000000001 0.256 -0.545 Q 0.16 -0.427 0.14300000000000002 -0.255 Q 0.14100000000000001 -0.234 0.14100000000000001 -0.219 Q 0.14100000000000001 -0.082 0.245 -0.031 Q 0.289 -0.009000000000000001 0.342 -0.009000000000000001 Q 0.427 -0.009000000000000001 0.483 -0.052000000000000005 Q 0.523 -0.082 0.535 -0.13 Q 0.556 -0.20800000000000002 0.556 -0.221 Q 0.556 -0.234 0.541 -0.23800000000000002 Q 0.536 -0.23900000000000002 0.525 -0.24 Q 0.502 -0.242 0.47200000000000003 -0.242 Q 0.445 -0.242 0.443 -0.248 Q 0.442 -0.249 0.442 -0.253 Q 0.442 -0.273 0.463 -0.273 L 0.602 -0.27 L 0.603 -0.27 L 0.707 -0.273 L 0.708 -0.273 Q 0.721 -0.273 0.721 -0.262 Q 0.721 -0.242 0.705 -0.242 Q 0.659 -0.241 0.65 -0.232 Q 0.644 -0.225 0.636 -0.194 Q 0.636 -0.196 0.626 -0.155 Q 0.624 -0.148 0.623 -0.14300000000000002 L 0.604 -0.066 Q 0.59 -0.008 0.587 -0.005 Q 0.587 -0.001 0.58 -0.001 Q 0.5690000000000001 -0.001 0.546 -0.039 Q 0.539 -0.052000000000000005 0.535 -0.063 Q 0.501 -0.025 0.458 -0.006 L 0.448 -0.002 Q 0.39 0.022 0.323 0.022 Q 0.188 0.022 0.111 -0.07200000000000001 Q 0.05 -0.146 0.05 -0.252 Q 0.05 -0.401 0.159 -0.531 Q 0.26 -0.652 0.398 -0.6910000000000001 Q 0.449 -0.705 0.498 -0.705 Q 0.607 -0.705 0.664 -0.616 L 0.734 -0.6930000000000001 Q 0.746 -0.705 0.749 -0.705 Q 0.76 -0.705 0.76 -0.6950000000000001 Z"/></g><g transform="translate(38.179229879993386,9.257142857142858) scale(0.7,0.7)"><path fill="rgb(0,0,0)" stroke="none" paint-order="stroke fill markers" d=" M 0.231 -0.35100000000000003 L 0.231 -0.35100000000000003 L 0.189 -0.183 Q 0.17500000000000002 -0.127 0.17500000000000002 -0.098 Q 0.18 -0.014 0.249 -0.011 Q 0.317 -0.011 0.368 -0.08700000000000001 Q 0.378 -0.10300000000000001 0.379 -0.107 Q 0.387 -0.132 0.405 -0.209 L 0.452 -0.396 Q 0.46 -0.431 0.491 -0.431 Q 0.516 -0.426 0.52 -0.404 Q 0.52 -0.406 0.505 -0.337 Q 0.491 -0.28600000000000003 0.488 -0.269 L 0.46 -0.161 Q 0.44 -0.074 0.44 -0.057 Q 0.44 -0.011 0.47000000000000003 -0.011 Q 0.508 -0.011 0.534 -0.091 Q 0.539 -0.108 0.546 -0.135 Q 0.554 -0.152 0.56 -0.153 Q 0.5720000000000001 -0.153 0.5720000000000001 -0.14300000000000002 Q 0.5720000000000001 -0.128 0.554 -0.073 Q 0.548 -0.056 0.542 -0.044 Q 0.514 0.011 0.468 0.011 Q 0.41300000000000003 0.011 0.388 -0.035 Q 0.381 -0.047 0.378 -0.062 Q 0.331 -0.007 0.28500000000000003 0.006 Q 0.266 0.011 0.245 0.011 Q 0.185 0.011 0.148 -0.02 Q 0.097 0.185 0.093 0.195 Q 0.079 0.216 0.058 0.216 Q 0.035 0.216 0.031 0.195 Q 0.03 0.192 0.03 0.189 Q 0.03 0.185 0.033 0.17300000000000001 L 0.177 -0.406 Q 0.186 -0.441 0.217 -0.442 Q 0.243 -0.442 0.246 -0.41500000000000004 Q 0.246 -0.41400000000000003 0.231 -0.35100000000000003 Z"/></g><g transform="translate(38.601329879993386,9.257142857142858) scale(0.7,0.7)"><path fill="rgb(0,0,0)" stroke="none" paint-order="stroke fill markers" d=" M 0.224 -0.431 L 0.126 -0.033 Q 0.258 -0.076 0.353 -0.199 Q 0.422 -0.289 0.456 -0.40900000000000003 Q 0.465 -0.441 0.495 -0.442 Q 0.521 -0.442 0.524 -0.41500000000000004 Q 0.524 -0.391 0.497 -0.33 Q 0.451 -0.228 0.365 -0.147 Q 0.23900000000000002 -0.03 0.09 -0.001 Q 0.08600000000000001 -0.001 0.083 0 L 0.069 0 Q 0.053 0 0.053 -0.012 Q 0.053 -0.016 0.064 -0.057 L 0.125 -0.302 Q 0.14400000000000002 -0.375 0.14400000000000002 -0.383 Q 0.14400000000000002 -0.394 0.13 -0.397 L 0.13 -0.397 Q 0.11800000000000001 -0.4 0.094 -0.4 Q 0.07200000000000001 -0.4 0.07 -0.41200000000000003 Q 0.07 -0.429 0.089 -0.432 L 0.211 -0.442 Q 0.224 -0.442 0.224 -0.431 Z"/></g><g transform="translate(38.991929879993386,9.107142857142858)"><path fill="rgb(0,0,0)" stroke="none" paint-order="stroke fill markers" d=" M 0.76 -0.6950000000000001 L 0.6970000000000001 -0.44 Q 0.6920000000000001 -0.422 0.687 -0.421 L 0.686 -0.42 L 0.679 -0.42 Q 0.664 -0.42 0.664 -0.43 L 0.667 -0.47900000000000004 L 0.667 -0.481 Q 0.667 -0.605 0.589 -0.652 L 0.588 -0.653 Q 0.553 -0.674 0.506 -0.674 Q 0.399 -0.674 0.303 -0.593 Q 0.276 -0.5710000000000001 0.256 -0.545 Q 0.16 -0.427 0.14300000000000002 -0.255 Q 0.14100000000000001 -0.234 0.14100000000000001 -0.219 Q 0.14100000000000001 -0.082 0.245 -0.031 Q 0.289 -0.009000000000000001 0.342 -0.009000000000000001 Q 0.427 -0.009000000000000001 0.483 -0.052000000000000005 Q 0.523 -0.082 0.535 -0.13 Q 0.556 -0.20800000000000002 0.556 -0.221 Q 0.556 -0.234 0.541 -0.23800000000000002 Q 0.536 -0.23900000000000002 0.525 -0.24 Q 0.502 -0.242 0.47200000000000003 -0.242 Q 0.445 -0.242 0.443 -0.248 Q 0.442 -0.249 0.442 -0.253 Q 0.442 -0.273 0.463 -0.273 L 0.602 -0.27 L 0.603 -0.27 L 0.707 -0.273 L 0.708 -0.273 Q 0.721 -0.273 0.721 -0.262 Q 0.721 -0.242 0.705 -0.242 Q 0.659 -0.241 0.65 -0.232 Q 0.644 -0.225 0.636 -0.194 Q 0.636 -0.196 0.626 -0.155 Q 0.624 -0.148 0.623 -0.14300000000000002 L 0.604 -0.066 Q 0.59 -0.008 0.587 -0.005 Q 0.587 -0.001 0.58 -0.001 Q 0.5690000000000001 -0.001 0.546 -0.039 Q 0.539 -0.052000000000000005 0.535 -0.063 Q 0.501 -0.025 0.458 -0.006 L 0.448 -0.002 Q 0.39 0.022 0.323 0.022 Q 0.188 0.022 0.111 -0.07200000000000001 Q 0.05 -0.146 0.05 -0.252 Q 0.05 -0.401 0.159 -0.531 Q 0.26 -0.652 0.398 -0.6910000000000001 Q 0.449 -0.705 0.498 -0.705 Q 0.607 -0.705 0.664 -0.616 L 0.734 -0.6930000000000001 Q 0.746 -0.705 0.749 -0.705 Q 0.76 -0.705 0.76 -0.6950000000000001 Z"/></g><g transform="translate(39.77792987999339,8.694250857142858) scale(0.7,0.7)"><path fill="rgb(0,0,0)" stroke="none" paint-order="stroke fill markers" d=" M 0.231 -0.35100000000000003 L 0.231 -0.35100000000000003 L 0.189 -0.183 Q 0.17500000000000002 -0.127 0.17500000000000002 -0.098 Q 0.18 -0.014 0.249 -0.011 Q 0.317 -0.011 0.368 -0.08700000000000001 Q 0.378 -0.10300000000000001 0.379 -0.107 Q 0.387 -0.132 0.405 -0.209 L 0.452 -0.396 Q 0.46 -0.431 0.491 -0.431 Q 0.516 -0.426 0.52 -0.404 Q 0.52 -0.406 0.505 -0.337 Q 0.491 -0.28600000000000003 0.488 -0.269 L 0.46 -0.161 Q 0.44 -0.074 0.44 -0.057 Q 0.44 -0.011 0.47000000000000003 -0.011 Q 0.508 -0.011 0.534 -0.091 Q 0.539 -0.108 0.546 -0.135 Q 0.554 -0.152 0.56 -0.153 Q 0.5720000000000001 -0.153 0.5720000000000001 -0.14300000000000002 Q 0.5720000000000001 -0.128 0.554 -0.073 Q 0.548 -0.056 0.542 -0.044 Q 0.514 0.011 0.468 0.011 Q 0.41300000000000003 0.011 0.388 -0.035 Q 0.381 -0.047 0.378 -0.062 Q 0.331 -0.007 0.28500000000000003 0.006 Q 0.266 0.011 0.245 0.011 Q 0.185 0.011 0.148 -0.02 Q 0.097 0.185 0.093 0.195 Q 0.079 0.216 0.058 0.216 Q 0.035 0.216 0.031 0.195 Q 0.03 0.192 0.03 0.189 Q 0.03 0.185 0.033 0.17300000000000001 L 0.177 -0.406 Q 0.186 -0.441 0.217 -0.442 Q 0.243 -0.442 0.246 -0.41500000000000004 Q 0.246 -0.41400000000000003 0.231 -0.35100000000000003 Z"/></g><g transform="translate(40.20002987999339,8.694250857142858) scale(0.7,0.7)"><path fill="rgb(0,0,0)" stroke="none" paint-order="stroke fill markers" d=" M 0.224 -0.431 L 0.126 -0.033 Q 0.258 -0.076 0.353 -0.199 Q 0.422 -0.289 0.456 -0.40900000000000003 Q 0.465 -0.441 0.495 -0.442 Q 0.521 -0.442 0.524 -0.41500000000000004 Q 0.524 -0.391 0.497 -0.33 Q 0.451 -0.228 0.365 -0.147 Q 0.23900000000000002 -0.03 0.09 -0.001 Q 0.08600000000000001 -0.001 0.083 0 L 0.069 0 Q 0.053 0 0.053 -0.012 Q 0.053 -0.016 0.064 -0.057 L 0.125 -0.302 Q 0.14400000000000002 -0.375 0.14400000000000002 -0.383 Q 0.14400000000000002 -0.394 0.13 -0.397 L 0.13 -0.397 Q 0.11800000000000001 -0.4 0.094 -0.4 Q 0.07200000000000001 -0.4 0.07 -0.41200000000000003 Q 0.07 -0.429 0.089 -0.432 L 0.211 -0.442 Q 0.224 -0.442 0.224 -0.431 Z"/></g><g transform="translate(40.604862222991954,9.107142857142858)"><path fill="rgb(0,0,0)" stroke="none" paint-order="stroke fill markers" d=" M 0.28300000000000003 -0.583 L 0.28300000000000003 -0.583 L 0.28300000000000003 -0.385 Q 0.28300000000000003 -0.291 0.377 -0.267 Q 0.393 -0.262 0.41100000000000003 -0.261 Q 0.426 -0.26 0.427 -0.25 Q 0.427 -0.23900000000000002 0.41300000000000003 -0.23900000000000002 Q 0.35000000000000003 -0.23500000000000001 0.309 -0.194 Q 0.28800000000000003 -0.171 0.28500000000000003 -0.136 Q 0.28300000000000003 -0.11800000000000001 0.28300000000000003 -0.056 L 0.28300000000000003 0.127 Q 0.281 0.188 0.20700000000000002 0.225 Q 0.156 0.25 0.092 0.25 Q 0.07200000000000001 0.25 0.07200000000000001 0.23900000000000002 Q 0.07200000000000001 0.23 0.081 0.228 Q 0.149 0.224 0.187 0.187 L 0.192 0.182 Q 0.213 0.16 0.215 0.117 Q 0.216 0.10300000000000001 0.216 0.063 L 0.216 -0.117 Q 0.216 -0.194 0.28500000000000003 -0.23 Q 0.306 -0.242 0.334 -0.25 Q 0.233 -0.279 0.218 -0.353 Q 0.216 -0.363 0.216 -0.444 L 0.216 -0.594 Q 0.216 -0.631 0.213 -0.642 Q 0.2 -0.6920000000000001 0.145 -0.715 Q 0.11900000000000001 -0.726 0.088 -0.728 Q 0.073 -0.729 0.07200000000000001 -0.739 Q 0.07200000000000001 -0.75 0.092 -0.75 Q 0.165 -0.75 0.221 -0.718 L 0.231 -0.712 Q 0.276 -0.68 0.281 -0.632 L 0.281 -0.631 L 0.28200000000000003 -0.63 Q 0.28300000000000003 -0.616 0.28300000000000003 -0.583 Z"/></g><g transform="translate(41.27152888965862,9.107142857142858)"><path fill="rgb(0,0,0)" stroke="none" paint-order="stroke fill markers" d=" M 0.40900000000000003 -0.23 L 0.40900000000000003 0.05 Q 0.40900000000000003 0.082 0.389 0.083 Q 0.369 0.083 0.369 0.05 L 0.369 -0.23 L 0.089 -0.23 Q 0.057 -0.23 0.056 -0.25 Q 0.056 -0.27 0.089 -0.27 L 0.369 -0.27 L 0.369 -0.55 Q 0.369 -0.582 0.389 -0.583 Q 0.40900000000000003 -0.583 0.40900000000000003 -0.55 L 0.40900000000000003 -0.27 L 0.6880000000000001 -0.27 Q 0.72 -0.27 0.721 -0.25 Q 0.721 -0.23 0.6880000000000001 -0.23 L 0.40900000000000003 -0.23 Z"/></g><g transform="translate(42.27175111188084,9.107142857142858)"><path fill="rgb(0,0,0)" stroke="none" paint-order="stroke fill markers" d=" M 0.628 -0.5690000000000001 L 0.268 0.004 Q 0.252 0.021 0.24 0.022 Q 0.226 0.022 0.222 0.01 Q 0.221 0.006 0.22 -0.001 L 0.14100000000000001 -0.618 Q 0.138 -0.641 0.127 -0.646 Q 0.116 -0.652 0.081 -0.652 Q 0.058 -0.652 0.056 -0.664 Q 0.056 -0.683 0.075 -0.683 L 0.128 -0.681 L 0.129 -0.681 L 0.182 -0.68 L 0.184 -0.68 L 0.307 -0.683 L 0.308 -0.683 Q 0.322 -0.683 0.322 -0.672 Q 0.314 -0.653 0.297 -0.652 Q 0.233 -0.652 0.228 -0.622 L 0.296 -0.093 L 0.603 -0.581 L 0.616 -0.609 Q 0.618 -0.615 0.618 -0.619 Q 0.618 -0.649 0.5720000000000001 -0.652 Q 0.556 -0.652 0.556 -0.664 Q 0.556 -0.683 0.5750000000000001 -0.683 L 0.673 -0.68 L 0.674 -0.68 L 0.754 -0.683 L 0.756 -0.683 Q 0.769 -0.683 0.769 -0.671 Q 0.769 -0.653 0.756 -0.652 Q 0.704 -0.649 0.674 -0.624 Q 0.663 -0.615 0.652 -0.602 Q 0.64 -0.588 0.628 -0.5690000000000001 Z"/></g><g transform="translate(43.07675111188084,9.107142857142858)"><path fill="rgb(0,0,0)" stroke="none" paint-order="stroke fill markers" d=" M 0.331 0.24 L 0.331 0.24 Q 0.331 0.25 0.321 0.25 Q 0.309 0.25 0.268 0.209 Q 0.20600000000000002 0.147 0.165 0.062 Q 0.099 -0.074 0.099 -0.25 Q 0.099 -0.419 0.162 -0.555 Q 0.214 -0.666 0.294 -0.733 Q 0.315 -0.75 0.321 -0.75 Q 0.331 -0.75 0.331 -0.74 Q 0.331 -0.735 0.318 -0.723 Q 0.157 -0.559 0.157 -0.25 Q 0.157 0.058 0.314 0.218 Q 0.331 0.23500000000000001 0.331 0.24 Z"/></g><g transform="translate(43.46575111188084,9.107142857142858)"><path fill="rgb(0,0,0)" stroke="none" paint-order="stroke fill markers" d=" M 0.437 -0.67 L 0.381 -0.443 Q 0.508 -0.434 0.555 -0.341 Q 0.5730000000000001 -0.304 0.5730000000000001 -0.262 Q 0.5730000000000001 -0.166 0.488 -0.084 Q 0.399 0.002 0.281 0.011 Q 0.274 0.012 0.267 0.012 L 0.229 0.161 Q 0.221 0.198 0.218 0.201 Q 0.214 0.20500000000000002 0.20800000000000002 0.20500000000000002 Q 0.196 0.20500000000000002 0.196 0.194 Q 0.196 0.192 0.218 0.106 L 0.24 0.016 Q 0.24 0.014 0.241 0.012 Q 0.126 0.005 0.075 -0.075 Q 0.049 -0.117 0.049 -0.169 Q 0.049 -0.267 0.136 -0.34900000000000003 Q 0.225 -0.434 0.343 -0.442 Q 0.34900000000000003 -0.443 0.355 -0.443 L 0.41300000000000003 -0.674 Q 0.422 -0.6930000000000001 0.428 -0.6940000000000001 Q 0.44 -0.6940000000000001 0.44 -0.684 L 0.437 -0.671 L 0.437 -0.67 M 0.246 -0.01 L 0.34900000000000003 -0.421 Q 0.233 -0.41100000000000003 0.164 -0.309 Q 0.114 -0.234 0.114 -0.148 Q 0.114 -0.05 0.198 -0.019 Q 0.221 -0.011 0.246 -0.01 M 0.375 -0.421 L 0.272 -0.01 Q 0.388 -0.019 0.458 -0.123 Q 0.508 -0.198 0.508 -0.28300000000000003 Q 0.508 -0.377 0.43 -0.40900000000000003 Q 0.405 -0.419 0.375 -0.421 Z"/></g><g transform="translate(44.06175111188084,9.107142857142858)"><path fill="rgb(0,0,0)" stroke="none" paint-order="stroke fill markers" d=" M 0.203 -0.001 L 0.203 -0.001 Q 0.203 0.096 0.14 0.169 Q 0.123 0.189 0.112 0.193 Q 0.10200000000000001 0.193 0.10200000000000001 0.182 Q 0.10200000000000001 0.177 0.113 0.166 Q 0.17300000000000001 0.106 0.18 0.019 Q 0.181 0.009000000000000001 0.181 -0.001 Q 0.181 -0.016 0.179 -0.016 Q 0.178 -0.016 0.17400000000000002 -0.013000000000000001 Q 0.16 0 0.139 0 Q 0.10200000000000001 0 0.09 -0.034 Q 0.08600000000000001 -0.043000000000000003 0.08600000000000001 -0.053 Q 0.08600000000000001 -0.089 0.117 -0.10200000000000001 Q 0.127 -0.106 0.139 -0.106 Q 0.183 -0.106 0.198 -0.048 Q 0.203 -0.027 0.203 -0.001 Z"/></g><g transform="translate(44.5064177785475,9.107142857142858)"><path fill="rgb(0,0,0)" stroke="none" paint-order="stroke fill markers" d=" M 0.159 -0.717 L 0.159 0.217 Q 0.159 0.249 0.139 0.25 Q 0.11900000000000001 0.25 0.11900000000000001 0.217 L 0.11900000000000001 -0.717 Q 0.11900000000000001 -0.749 0.139 -0.75 Q 0.159 -0.75 0.159 -0.717 Z"/></g><g transform="translate(44.7844177785475,9.107142857142858)"><path fill="rgb(0,0,0)" stroke="none" paint-order="stroke fill markers" d=" M 0.17 0.17 L 0.223 0.002 Q 0.109 -0.025 0.067 -0.111 Q 0.05 -0.148 0.05 -0.19 Q 0.05 -0.269 0.10300000000000001 -0.368 Q 0.136 -0.431 0.155 -0.431 Q 0.167 -0.431 0.167 -0.421 Q 0.167 -0.417 0.159 -0.40800000000000003 Q 0.101 -0.341 0.08 -0.232 Q 0.076 -0.212 0.076 -0.201 Q 0.076 -0.113 0.17500000000000002 -0.07200000000000001 Q 0.20400000000000001 -0.06 0.24 -0.053 Q 0.299 -0.246 0.34 -0.319 Q 0.40800000000000003 -0.442 0.505 -0.442 Q 0.582 -0.442 0.609 -0.368 Q 0.619 -0.339 0.619 -0.304 Q 0.619 -0.193 0.532 -0.099 Q 0.445 -0.004 0.331 0.009000000000000001 Q 0.315 0.011 0.299 0.011 Q 0.28400000000000003 0.011 0.266 0.009000000000000001 Q 0.231 0.191 0.231 0.192 Q 0.22 0.217 0.194 0.218 Q 0.171 0.218 0.166 0.198 L 0.166 0.197 L 0.166 0.197 Q 0.165 0.194 0.165 0.19 Q 0.165 0.186 0.17 0.17 M 0.308 -0.047 Q 0.424 -0.047 0.512 -0.126 Q 0.589 -0.196 0.591 -0.28200000000000003 Q 0.591 -0.34400000000000003 0.547 -0.371 Q 0.525 -0.384 0.495 -0.384 Q 0.41200000000000003 -0.384 0.35000000000000003 -0.28700000000000003 Q 0.315 -0.232 0.297 -0.16 Q 0.277 -0.06 0.277 -0.052000000000000005 Q 0.277 -0.048 0.29 -0.048 Q 0.298 -0.047 0.308 -0.047 Z"/></g><g transform="translate(45.4384177785475,9.107142857142858)"><path fill="rgb(0,0,0)" stroke="none" paint-order="stroke fill markers" d=" M 0.159 -0.717 L 0.159 0.217 Q 0.159 0.249 0.139 0.25 Q 0.11900000000000001 0.25 0.11900000000000001 0.217 L 0.11900000000000001 -0.717 Q 0.11900000000000001 -0.749 0.139 -0.75 Q 0.159 -0.75 0.159 -0.717 Z"/></g><g transform="translate(45.7164177785475,9.107142857142858)"><path fill="rgb(0,0,0)" stroke="none" paint-order="stroke fill markers" d=" M 0.203 -0.001 L 0.203 -0.001 Q 0.203 0.096 0.14 0.169 Q 0.123 0.189 0.112 0.193 Q 0.10200000000000001 0.193 0.10200000000000001 0.182 Q 0.10200000000000001 0.177 0.113 0.166 Q 0.17300000000000001 0.106 0.18 0.019 Q 0.181 0.009000000000000001 0.181 -0.001 Q 0.181 -0.016 0.179 -0.016 Q 0.178 -0.016 0.17400000000000002 -0.013000000000000001 Q 0.16 0 0.139 0 Q 0.10200000000000001 0 0.09 -0.034 Q 0.08600000000000001 -0.043000000000000003 0.08600000000000001 -0.053 Q 0.08600000000000001 -0.089 0.117 -0.10200000000000001 Q 0.127 -0.106 0.139 -0.106 Q 0.183 -0.106 0.198 -0.048 Q 0.203 -0.027 0.203 -0.001 Z"/></g><g transform="translate(46.161084445214165,9.107142857142858)"><path fill="rgb(0,0,0)" stroke="none" paint-order="stroke fill markers" d=" M 0.159 -0.717 L 0.159 0.217 Q 0.159 0.249 0.139 0.25 Q 0.11900000000000001 0.25 0.11900000000000001 0.217 L 0.11900000000000001 -0.717 Q 0.11900000000000001 -0.749 0.139 -0.75 Q 0.159 -0.75 0.159 -0.717 Z"/></g><g transform="translate(46.439084445214164,9.107142857142858)"><path fill="rgb(0,0,0)" stroke="none" paint-order="stroke fill markers" d=" M 0.399 -0.135 L 0.399 -0.079 Q 0.399 -0.05 0.41100000000000003 -0.042 L 0.41100000000000003 -0.042 L 0.41100000000000003 -0.042 L 0.41200000000000003 -0.041 Q 0.429 -0.031 0.494 -0.031 L 0.527 -0.031 L 0.527 0 Q 0.491 -0.003 0.357 -0.003 Q 0.224 -0.003 0.188 0 L 0.188 -0.031 L 0.221 -0.031 Q 0.3 -0.031 0.312 -0.05 Q 0.314 -0.054 0.315 -0.06 Q 0.316 -0.066 0.316 -0.079 L 0.316 -0.135 Q 0.184 -0.148 0.108 -0.225 Q 0.056 -0.278 0.056 -0.342 Q 0.056 -0.424 0.14 -0.485 Q 0.212 -0.538 0.316 -0.548 L 0.316 -0.604 Q 0.316 -0.633 0.304 -0.641 L 0.304 -0.641 L 0.304 -0.641 L 0.303 -0.642 Q 0.28600000000000003 -0.652 0.221 -0.652 L 0.188 -0.652 L 0.188 -0.683 Q 0.224 -0.68 0.358 -0.68 Q 0.491 -0.68 0.527 -0.683 L 0.527 -0.652 L 0.494 -0.652 Q 0.41500000000000004 -0.652 0.403 -0.633 Q 0.399 -0.626 0.399 -0.604 L 0.399 -0.548 Q 0.531 -0.538 0.609 -0.461 Q 0.665 -0.40700000000000003 0.665 -0.341 Q 0.665 -0.259 0.581 -0.198 Q 0.506 -0.14300000000000002 0.399 -0.135 M 0.316 -0.158 L 0.316 -0.525 Q 0.156 -0.504 0.156 -0.341 Q 0.156 -0.179 0.316 -0.158 M 0.399 -0.526 L 0.399 -0.157 Q 0.5650000000000001 -0.177 0.5650000000000001 -0.342 Q 0.5650000000000001 -0.507 0.399 -0.526 Z"/></g><g transform="translate(47.161084445214165,9.107142857142858)"><path fill="rgb(0,0,0)" stroke="none" paint-order="stroke fill markers" d=" M 0.159 -0.717 L 0.159 0.217 Q 0.159 0.249 0.139 0.25 Q 0.11900000000000001 0.25 0.11900000000000001 0.217 L 0.11900000000000001 -0.717 Q 0.11900000000000001 -0.749 0.139 -0.75 Q 0.159 -0.75 0.159 -0.717 Z"/></g><g transform="translate(47.439084445214164,9.107142857142858)"><path fill="rgb(0,0,0)" stroke="none" paint-order="stroke fill markers" d=" M 0.289 -0.25 L 0.289 -0.25 Q 0.289 -0.081 0.226 0.055 Q 0.17400000000000002 0.166 0.094 0.233 Q 0.073 0.25 0.067 0.25 Q 0.057 0.25 0.057 0.24 Q 0.057 0.23500000000000001 0.07 0.223 Q 0.231 0.059000000000000004 0.231 -0.25 Q 0.231 -0.555 0.081 -0.712 L 0.076 -0.717 Q 0.057 -0.735 0.057 -0.74 Q 0.057 -0.75 0.067 -0.75 Q 0.079 -0.75 0.12 -0.709 Q 0.182 -0.647 0.223 -0.562 Q 0.289 -0.426 0.289 -0.25 Z"/></g><g transform="translate(47.82808444521417,9.107142857142858)"><path fill="rgb(0,0,0)" stroke="none" paint-order="stroke fill markers" d=" M 0.28300000000000003 -0.583 L 0.28300000000000003 -0.583 L 0.28300000000000003 -0.385 Q 0.28300000000000003 -0.291 0.377 -0.267 Q 0.393 -0.262 0.41100000000000003 -0.261 Q 0.426 -0.26 0.427 -0.25 Q 0.427 -0.23900000000000002 0.41300000000000003 -0.23900000000000002 Q 0.35000000000000003 -0.23500000000000001 0.309 -0.194 Q 0.28800000000000003 -0.171 0.28500000000000003 -0.136 Q 0.28300000000000003 -0.11800000000000001 0.28300000000000003 -0.056 L 0.28300000000000003 0.127 Q 0.281 0.188 0.20700000000000002 0.225 Q 0.156 0.25 0.092 0.25 Q 0.07200000000000001 0.25 0.07200000000000001 0.23900000000000002 Q 0.07200000000000001 0.23 0.081 0.228 Q 0.149 0.224 0.187 0.187 L 0.192 0.182 Q 0.213 0.16 0.215 0.117 Q 0.216 0.10300000000000001 0.216 0.063 L 0.216 -0.117 Q 0.216 -0.194 0.28500000000000003 -0.23 Q 0.306 -0.242 0.334 -0.25 Q 0.233 -0.279 0.218 -0.353 Q 0.216 -0.363 0.216 -0.444 L 0.216 -0.594 Q 0.216 -0.631 0.213 -0.642 Q 0.2 -0.6920000000000001 0.145 -0.715 Q 0.11900000000000001 -0.726 0.088 -0.728 Q 0.073 -0.729 0.07200000000000001 -0.739 Q 0.07200000000000001 -0.75 0.092 -0.75 Q 0.165 -0.75 0.221 -0.718 L 0.231 -0.712 Q 0.276 -0.68 0.281 -0.632 L 0.281 -0.631 L 0.28200000000000003 -0.63 Q 0.28300000000000003 -0.616 0.28300000000000003 -0.583 Z"/></g><g transform="translate(48.32808444521418,7.6971428571428575)"><path fill="rgb(0,0,0)" stroke="none" paint-order="stroke fill markers" d=" M 0.130859375 2.35107421875 L 0.130859375 2.3251953125 Q 0.130859375 2.318359375 0.13818359375 2.31689453125 Q 0.19189453125 2.29248046875 0.235595703125 2.2529296875 Q 0.279296875 2.21337890625 0.30517578125 2.16259765625 Q 0.3310546875 2.11181640625 0.3310546875 2.05419921875 L 0.3310546875 1.46484375 Q 0.3310546875 1.4130859375 0.349853515625 1.365966796875 Q 0.36865234375 1.31884765625 0.400146484375 1.280517578125 Q 0.431640625 1.2421875 0.472900390625 1.211669921875 Q 0.51416015625 1.18115234375 0.56103515625 1.16015625 Q 0.46142578125 1.11279296875 0.396240234375 1.033203125 Q 0.3310546875 0.95361328125 0.3310546875 0.85400390625 L 0.3310546875 0.26513671875 Q 0.3310546875 0.20751953125 0.30517578125 0.156494140625 Q 0.279296875 0.10546875 0.235107421875 0.06591796875 Q 0.19091796875 0.0263671875 0.13818359375 0.0029296875 Q 0.130859375 -0.00048828125 0.130859375 -0.005859375 L 0.130859375 -0.0322265625 Q 0.130859375 -0.0400390625 0.14013671875 -0.0400390625 L 0.166015625 -0.0400390625 Q 0.19873046875 -0.03173828125 0.249267578125 0.00146484375 Q 0.2998046875 0.03466796875 0.330078125 0.06494140625 Q 0.35791015625 0.09375 0.376953125 0.1240234375 Q 0.39599609375 0.154296875 0.406982421875 0.190185546875 Q 0.41796875 0.22607421875 0.41796875 0.26318359375 L 0.41796875 0.85205078125 Q 0.41796875 0.9423828125 0.47119140625 1.01806640625 Q 0.5244140625 1.09375 0.60986328125 1.13818359375 Q 0.6181640625 1.142578125 0.6181640625 1.14697265625 L 0.6181640625 1.1728515625 Q 0.6181640625 1.1767578125 0.60986328125 1.18115234375 Q 0.55517578125 1.208984375 0.511474609375 1.25244140625 Q 0.4677734375 1.2958984375 0.44287109375 1.351318359375 Q 0.41796875 1.40673828125 0.41796875 1.466796875 L 0.41796875 2.05615234375 Q 0.41796875 2.09326171875 0.406982421875 2.12890625 Q 0.39599609375 2.16455078125 0.376220703125 2.196044921875 Q 0.3564453125 2.2275390625 0.330078125 2.25390625 Q 0.3115234375 2.2724609375 0.28173828125 2.294677734375 Q 0.251953125 2.31689453125 0.220703125 2.3349609375 Q 0.189453125 2.35302734375 0.166015625 2.35888671875 L 0.14013671875 2.35888671875 Q 0.130859375 2.35888671875 0.130859375 2.35107421875 Z"/></g></g><path fill="rgb(255,255,255)" stroke="none" paint-order="stroke fill markers" fill-rule="evenodd" d=" M 37.5 109 L 166.5 109 C 168.43299662440776 109 170 110.56700337559222 170 112.5 L 170 140.5 C 170 142.43299662440776 168.43299662440776 144 166.5 144 L 37.5 144 C 35.56700337559222 144 34 142.43299662440776 34 140.5 L 34 112.5 C 34 110.56700337559222 35.56700337559222 109 37.5 109 Z" fill-opacity="1"/><path fill="none" stroke="rgb(179,179,179)" paint-order="fill stroke markers" d=" M 37.5 109 L 166.5 109 C 168.43299662440776 109 170 110.56700337559222 170 112.5 L 170 140.5 C 170 142.43299662440776 168.43299662440776 144 166.5 144 L 37.5 144 C 35.56700337559222 144 34 142.43299662440776 34 140.5 L 34 112.5 C 34 110.56700337559222 35.56700337559222 109 37.5 109 Z" stroke-opacity="1" stroke-linecap="round" stroke-linejoin="round" stroke-miterlimit="10"/><text fill="rgb(0,0,0)" stroke="none" font-family="geogebra-sans-serif, sans-serif" font-size="24px" font-style="normal" font-weight="normal" text-decoration="normal" x="44" y="136" text-anchor="start" dominant-baseline="alphabetic" fill-opacity="1">Show SVG</text><path fill="rgb(255,255,255)" stroke="none" paint-order="stroke fill markers" fill-rule="evenodd" d=" M 204.5 106 L 380.5 106 C 382.4329966244078 106 384 107.56700337559222 384 109.5 L 384 137.5 C 384 139.43299662440776 382.4329966244078 141 380.5 141 L 204.5 141 C 202.56700337559224 141 201 139.43299662440776 201 137.5 L 201 109.5 C 201 107.56700337559222 202.56700337559224 106 204.5 106 Z" fill-opacity="1"/><path fill="none" stroke="rgb(179,179,179)" paint-order="fill stroke markers" d=" M 204.5 106 L 380.5 106 C 382.4329966244078 106 384 107.56700337559222 384 109.5 L 384 137.5 C 384 139.43299662440776 382.4329966244078 141 380.5 141 L 204.5 141 C 202.56700337559224 141 201 139.43299662440776 201 137.5 L 201 109.5 C 201 107.56700337559222 202.56700337559224 106 204.5 106 Z" stroke-opacity="1" stroke-linecap="round" stroke-linejoin="round" stroke-miterlimit="10"/><text fill="rgb(0,0,0)" stroke="none" font-family="geogebra-sans-serif, sans-serif" font-size="24px" font-style="normal" font-weight="normal" text-decoration="normal" x="211" y="133" text-anchor="start" dominant-baseline="alphabetic" fill-opacity="1">Download SVG</text><path fill="rgb(255,255,255)" stroke="none" paint-order="stroke fill markers" fill-rule="evenodd" d=" M 212 30 L 722 30 C 724.2091389993232 30 726 31.790861000676827 726 34 L 726 75 C 726 77.20913899932317 724.2091389993232 79 722 79 L 212 79 C 209.7908610006768 79 208 77.20913899932317 208 75 L 208 34 C 208 31.790861000676827 209.7908610006768 30 212 30 Z" fill-opacity="1"/><path fill="none" stroke="rgb(180,179,186)" paint-order="fill stroke markers" d=" M 212 30 L 722 30 C 724.2091389993232 30 726 31.790861000676827 726 34 L 726 75 C 726 77.20913899932317 724.2091389993232 79 722 79 L 212 79 C 209.7908610006768 79 208 77.20913899932317 208 75 L 208 34 C 208 31.790861000676827 209.7908610006768 30 212 30 Z" stroke-opacity="1" stroke-linecap="round" stroke-linejoin="round" stroke-miterlimit="10"/><text fill="rgb(0,0,0)" stroke="none" font-family="geogebra-sans-serif, sans-serif" font-size="32px" font-style="normal" font-weight="normal" text-decoration="normal" x="210" y="66" text-anchor="start" dominant-baseline="alphabetic" fill-opacity="1">S = -\int d^4x \sqrt{-g}\left\{ \frac{1}{</text><text fill="rgb(0,0,0)" stroke="none" font-family="geogebra-sans-serif, sans-serif" font-size="32px" font-style="normal" font-weight="normal" text-decoration="normal" x="30" y="66" text-anchor="start" dominant-baseline="alphabetic" fill-opacity="1">Enter LaTeX</text></g></g></g></g></svg>